<?xml version="1.0" encoding="UTF-8" standalone="no"?>
<!DOCTYPE svg PUBLIC "-//W3C//DTD SVG 1.1//EN" "http://www.w3.org/Graphics/SVG/1.1/DTD/svg11.dtd">
<svg width="100%" height="100%" viewBox="0 0 1000 1000" version="1.1" xmlns="http://www.w3.org/2000/svg" xmlns:xlink="http://www.w3.org/1999/xlink" xml:space="preserve" xmlns:serif="http://www.serif.com/" style="fill-rule:evenodd;clip-rule:evenodd;stroke-linejoin:round;stroke-miterlimit:2;">
    <path d="M312.063,1000C313.044,996.046 314.018,992.092 314.989,988.137C318.147,975.271 320.907,962.282 323.915,949.366C323.131,948.179 322.513,946.684 321.808,945.638C320.68,943.967 319.617,942.288 318.668,940.511C318.269,939.765 319.347,938.276 319.834,939.341C320.785,941.424 322.099,943.313 323.374,945.207C323.719,945.719 324.077,946.367 324.491,946.909C324.845,945.405 325.204,943.901 325.568,942.399C325.3,941.99 325.076,941.554 324.875,941.237C323.719,939.414 322.39,937.755 321.21,935.948C320.887,935.453 321.455,934.094 321.969,934.761C323.047,936.158 323.976,937.665 325.127,938.997C325.441,939.36 325.775,939.763 326.122,940.127C326.391,939.032 326.663,937.938 326.939,936.845C325.615,935.456 324.56,932.45 324.16,931.355C324.007,930.933 324.474,929.635 324.994,930.304C325.6,931.083 326.529,933.285 327.542,934.473C327.928,932.969 328.322,931.467 328.723,929.968C329.063,928.697 330.329,928.944 330.105,930.252C329.824,931.884 329.531,933.516 329.227,935.148C330.022,934.825 331.034,933.937 331.666,933.506C332.578,932.884 333.435,932.192 334.264,931.462C334.909,930.893 335.053,932.139 334.691,932.536C333.63,933.703 332.508,934.825 331.261,935.795C330.646,936.273 329.665,937.182 328.786,937.473C328.571,938.589 328.351,939.703 328.127,940.818C328.183,940.797 328.244,940.774 328.309,940.751C330.728,939.901 332.784,938.03 335.197,937.172C335.617,937.023 335.516,937.874 335.339,938.034C333.864,939.364 332.007,940.483 330.401,941.644C329.782,942.091 328.528,943.243 327.573,943.529C327.271,944.985 326.962,946.44 326.646,947.896C326.694,947.876 326.745,947.856 326.8,947.836C330.063,946.603 332.259,943.266 335.606,942.096C336.191,941.891 335.982,943.026 335.793,943.234C334.429,944.739 332.728,945.789 331.036,946.904C329.406,947.977 327.832,949.62 326.084,950.464C323.261,963.214 320.021,975.902 317.006,988.551C316.096,992.37 315.171,996.185 314.235,1000L312.063,1000ZM574.782,1000C573.976,995.469 573.2,990.94 572.369,986.444C569.847,972.788 567.444,959.111 565.11,945.422C560.982,921.2 557.029,896.948 553.365,872.65C552.381,873.306 551.453,874.238 550.535,874.858C549.118,875.815 547.645,876.662 546.14,877.47C544.744,878.221 543.938,876.552 543.916,875.15C543.771,874.719 543.724,874.277 543.842,873.991C545.953,868.924 548.362,864.002 550.737,859.056C551.147,858.2 551.855,858.014 552.593,858.62C556.885,862.145 560.796,866.022 564.424,870.224C565.104,871.01 565.93,874.19 563.923,873.927C561.776,873.644 558.237,871.997 555.779,871.915C559.461,896.608 563.316,921.269 567.486,945.881C569.862,959.901 572.319,973.907 574.813,987.906C575.531,991.934 576.312,995.964 577.088,1000L574.782,1000ZM1000,945.565C969.766,947.978 939.419,949.458 909.141,950.6C909.27,950.813 909.411,951.041 909.566,951.288C910.576,952.902 910.804,955.228 912.03,956.679C912.136,956.784 912.241,956.89 912.346,956.995L912.469,957.121C912.987,957.561 912.937,957.997 912.601,958.352C913.273,959.029 911.471,959.638 910.931,959.423C910.696,959.33 910.461,959.235 910.228,959.139C909.914,959.117 909.634,959.038 909.432,958.89C909.336,958.819 909.239,958.748 909.142,958.677C906.451,957.495 903.879,956.114 901.281,954.711C899.531,953.767 895.826,952.678 894.878,950.74C894.71,950.399 894.812,950.048 895.016,949.753C896.266,947.94 898.783,946.583 900.515,945.269C902.884,943.469 905.247,941.678 907.679,939.965C908.326,939.509 911.351,939.405 910.643,940.905C910.184,941.877 909.714,942.871 909.297,943.879C909.342,943.996 909.366,944.127 909.364,944.271C909.347,945.71 909.1,946.984 908.621,948.199C939.125,946.973 969.558,945.034 1000,942.998L1000,945.565ZM0,942.998C7.819,942.475 15.644,941.946 23.47,941.42C25.31,938.464 28.56,935.544 30.914,933.302C31.342,932.894 32.781,933.153 32.301,933.906C31.185,935.659 29.85,937.273 28.57,938.909C28.074,939.543 27.2,940.343 26.64,941.208L28.609,941.076L29.27,941.032C29.794,940.372 30.697,939.826 31.136,939.436C32.903,937.867 34.458,936.082 35.976,934.276C36.367,933.81 37.801,933.957 37.353,934.714C36.515,936.128 35.598,937.402 34.511,938.634C33.919,939.306 32.766,940.051 32.289,940.831C33.452,940.753 34.614,940.676 35.776,940.599C36.076,940.227 36.533,939.919 36.888,939.606C38.261,938.393 39.391,936.83 40.904,935.801C41.105,935.664 41.94,935.56 41.884,936.007C41.757,937.036 41.166,937.817 40.505,938.608C40.012,939.2 39.088,939.808 38.468,940.422C39.724,940.339 40.979,940.256 42.234,940.174C43.497,940.091 43.537,941.366 42.312,941.505C40.915,941.664 39.517,941.82 38.118,941.974C38.626,942.625 39.851,943.148 40.477,943.525C41.392,944.077 42.191,944.592 42.906,945.388C42.999,945.492 43.067,945.644 43.009,945.785C42.959,945.909 42.908,946.032 42.857,946.156C42.814,946.259 42.675,946.295 42.575,946.28C41.157,946.076 39.885,944.901 38.632,944.216C37.805,943.762 36.389,943.115 35.768,942.229C34.727,942.341 33.687,942.452 32.65,942.561C34.201,944.487 38.626,946.853 39.767,947.652C40.772,948.355 39.115,949.087 38.414,948.657C36.362,947.399 34.283,946.176 32.254,944.881C31.603,944.464 30.006,943.769 29.263,942.912C28.244,943.016 27.225,943.119 26.2,943.221C26.231,943.314 26.271,943.407 26.32,943.499C26.92,944.62 29.427,945.93 30.469,946.726C31.838,947.771 33.227,948.79 34.582,949.853C35.25,950.375 33.791,950.797 33.364,950.562C31.256,949.398 29.231,948.097 27.248,946.734C25.904,945.81 24.079,944.827 23.046,943.531C15.373,944.276 7.689,944.951 0,945.565L0,942.998ZM899.393,746.342C897.02,744.574 894.92,742.83 893.028,740.444C892.192,739.391 893.498,738.407 894.68,738.191C894.875,738.121 895.054,738.085 895.183,738.096C899.08,738.454 902.949,739.148 906.834,739.629C908.463,739.83 912.01,739.415 912.876,741.222C913.718,742.978 911.535,744.998 910.689,746.303C908.521,749.65 906.981,753.33 905.431,756.99C904.98,758.057 902.165,759.351 901.947,757.481C901.727,755.589 901.602,753.686 901.661,751.779C901.705,750.343 901.864,749.418 901.567,748.589C864.713,764.382 827.931,780.557 790.785,795.673C790.601,798.56 787.865,802.95 787.161,804.946C787.014,805.364 785.808,805.854 785.804,805.138C785.788,802.56 788.428,799.201 788.214,796.718C786.912,797.246 785.609,797.772 784.306,798.297C783.266,801.12 782.326,803.988 781.096,806.732C780.879,807.216 779.572,807.604 779.761,806.791C780.177,804.998 780.749,803.284 781.315,801.533C781.514,800.917 781.954,800.017 782.15,799.165C780.969,799.639 779.787,800.113 778.605,800.585C778.435,801.332 777.893,802.084 777.562,802.696C776.663,804.357 775.797,806.104 774.588,807.559C774.252,807.964 772.859,808.165 773.108,807.303C773.387,806.335 775.446,803.407 776.095,801.585C774.305,802.297 772.507,803.008 770.709,803.717C769.234,804.298 768.593,802.826 770.034,802.164C771.763,801.369 773.493,800.577 775.231,799.785C774.218,799.499 772.75,799.397 772.108,799.22C770.784,798.857 769.498,798.389 768.141,798.156C767.689,798.078 768.146,797.6 768.414,797.597C770.419,797.577 772.422,797.432 774.403,797.819C775.246,797.984 776.712,798.144 777.674,798.674C778.91,798.112 780.147,797.552 781.385,796.994C780.391,796.389 778.636,795.817 777.934,795.515C776.287,794.808 774.549,794.405 772.794,794.062C771.668,793.841 772.903,792.611 773.663,792.735C777.126,793.298 780.502,794.283 783.541,796.022C784.666,795.516 785.791,795.011 786.922,794.504C784.566,792.512 780.243,792.439 778.14,790.161C777.933,789.936 778.342,789.701 778.531,789.691C780.882,789.572 783.07,790.467 785.229,791.355C786.237,791.771 788.428,792.363 789.705,793.26C826.004,777.067 862.806,761.855 899.393,746.342ZM129.863,701.147C129.794,701.373 129.726,701.616 129.652,701.879C129.212,703.458 128.792,706.327 127.052,706.889C125.998,707.231 124.7,705.893 124.666,704.898C124.635,704.01 124.618,703.122 124.612,702.234C124.304,700.502 124.118,698.738 123.933,697.007C123.796,695.73 122.982,693.139 123.945,691.979C124.935,690.788 127.41,691.453 128.68,691.713C131.459,692.285 134.229,693.173 136.856,694.235C137.526,694.505 139.45,696.677 137.848,697.053C136.069,697.472 133.983,697.706 132.296,698.387C132.088,698.471 131.9,698.557 131.729,698.645C133.357,700.967 134.948,703.324 136.697,705.53C140.062,709.772 143.553,713.914 147.001,718.089C153.718,726.218 160.375,734.396 167.077,742.537C176.053,753.439 185.391,764.209 194.289,775.278C195.224,775.302 196.27,775.511 196.752,775.543C199.809,775.745 202.944,776.002 205.945,776.618C206.461,776.724 207.119,777.973 206.273,777.99C203.808,778.035 201.32,777.717 198.869,777.462C198.053,777.377 196.623,776.89 195.843,777.069C195.809,777.077 195.776,777.085 195.743,777.094C196.627,778.204 197.507,779.318 198.381,780.435C201.148,779.802 206.895,781.6 208.543,781.872C209.206,781.983 209.832,783.615 208.927,783.478C206.986,783.183 205.045,782.829 203.091,782.634C202.134,782.539 200.921,782.322 200.003,782.519C200.792,783.54 201.576,784.565 202.354,785.592C205.401,785.981 208.525,786.434 211.247,787.885C211.54,788.041 211.969,789.02 211.327,788.937C208.764,788.605 206.324,787.852 203.786,787.496C205.223,789.42 206.638,791.357 208.029,793.309C208.419,793.857 207.991,794.606 207.425,794.011C205.685,792.183 203.967,790.332 202.268,788.462C202.585,791.325 202.504,794.188 202.891,797.057C202.982,797.728 202.1,797.357 201.948,796.992C200.574,793.706 200.941,789.812 200.337,786.32C199.745,785.659 199.156,784.996 198.569,784.331C198.377,785.809 198.649,787.977 198.547,789.129C198.401,790.786 197.924,792.33 197.69,793.966C197.62,794.453 196.94,793.955 196.929,793.646C196.846,791.188 196.528,788.801 196.661,786.328C196.703,785.543 196.569,783.629 196.772,782.281C195.93,781.315 195.092,780.345 194.258,779.373C194.237,779.561 194.217,779.749 194.189,779.932C193.597,783.874 194.486,788.04 193.986,792.028C193.896,792.748 192.959,791.974 192.908,791.575C192.461,788.063 192.584,784.487 192.543,780.951C192.538,780.506 192.323,778.587 192.373,777.162C182.908,766.002 173.843,754.439 164.568,743.223C157.217,734.333 149.826,725.478 142.491,716.576C138.488,711.716 133.596,706.656 129.863,701.147ZM365.786,658.088C365.196,659.022 364.694,660.056 364.122,660.904C362.773,662.908 361.282,664.771 359.798,666.674C359.103,667.566 358.003,666.405 357.763,665.443C357.567,665.151 357.436,664.853 357.433,664.631C357.377,660.139 357.618,655.699 358.003,651.225C358.139,649.647 357.662,646.037 359.252,644.947C361.021,643.735 364.748,646.004 366.464,646.59C370.566,647.992 374.646,649.452 378.706,650.974C379.647,651.326 380.733,653.524 379.3,653.925C377.346,654.471 375.391,654.958 373.375,655.222C371.698,655.441 369.689,655.131 368.13,655.804C369.356,658.089 370.523,660.385 371.756,662.477L381.858,679.609C388.593,691.032 395.331,702.452 402.062,713.877C411.176,729.347 420.576,744.748 429.606,760.327C430.949,760.336 432.51,760.839 433.44,761.004C436.963,761.629 440.421,762.498 443.85,763.512C444.59,763.731 445.25,765.577 444.212,765.318C441.226,764.574 434.602,762.024 430.894,762.555C431.721,763.988 432.544,765.423 433.363,766.861C435.038,766.898 437.18,767.612 438.169,767.815C440.826,768.361 443.485,769.048 445.95,770.189C446.439,770.414 447.044,771.987 446.1,771.763C443.596,771.171 438.233,768.907 434.787,769.366C435.436,770.514 436.083,771.663 436.727,772.812C438.189,772.976 440.088,773.868 441.032,774.161C443.532,774.938 445.741,776.447 448.233,777.164C448.923,777.363 449.466,779.043 448.56,778.794C446.717,778.288 445.104,777.319 443.315,776.658C442.495,776.355 439.548,775.109 437.93,774.969C439.508,777.808 441.065,780.651 442.6,783.505C443.33,784.863 442.048,785.722 441.191,784.396C439.503,781.786 437.834,779.162 436.18,776.529C435.738,778.096 435.742,780.409 435.576,781.397C435.193,783.667 434.783,785.996 434.042,788.176C433.843,788.763 433.232,787.998 433.215,787.683C433.054,784.67 433.374,781.637 433.861,778.663C434.022,777.683 434.029,775.397 434.599,773.999C433.875,772.837 433.154,771.672 432.434,770.504C432.36,770.591 432.29,770.684 432.226,770.783C431.146,772.431 430.972,775.973 430.418,777.883C429.924,779.586 429.382,781.156 428.47,782.676C428.112,783.273 427.384,782.188 427.483,781.78C428.302,778.404 429.262,775.077 430.032,771.684C430.273,770.623 430.338,769.115 430.932,768.058C430.111,766.715 429.292,765.37 428.475,764.02C427.304,765.864 426.841,769.318 426.37,771.101C425.71,773.6 425.205,776.07 424.202,778.461C423.926,779.118 423.108,778.313 423.168,777.844C423.635,774.217 424.793,770.766 425.701,767.23C426.045,765.888 426.183,763.294 427.081,761.712C417.649,746.05 408.563,730.146 399.275,714.463C392.35,702.77 385.428,691.073 378.504,679.378C374.958,673.388 371.412,667.398 367.866,661.408C367.212,660.303 366.505,659.199 365.786,658.088ZM907.819,745.914L907.746,745.945C907.736,745.989 907.726,746.033 907.716,746.077C907.751,746.023 907.785,745.968 907.819,745.914ZM659.354,645.592C664.605,611.261 670.664,577.015 676.487,542.789C675.17,543.183 673.724,544.106 672.709,544.563C670.61,545.508 668.508,546.452 666.404,547.388C666.388,547.395 666.372,547.402 666.356,547.409L666.347,547.417C665.48,548.247 665.032,547.471 664.988,546.564C664.835,545.839 665.015,544.896 665.464,544.472C665.877,544.082 666.298,543.701 666.725,543.327C669.349,540.028 672.194,536.903 674.989,533.75C676.072,532.527 678.153,528.886 680.167,529.102C682.256,529.325 683.065,533.729 683.669,535.185C685.38,539.301 687.092,543.418 688.803,547.535C689.084,548.212 688.547,551.105 687.326,550.101C685.573,548.659 683.797,547.245 682.024,545.828C681.479,545.393 679.988,543.898 678.909,543.118C673.304,577.363 667.916,611.704 661.741,645.856C664.362,649.198 666.002,653.301 668.439,656.775C668.85,657.361 668.154,658.939 667.626,658.184C666.329,656.335 665.011,654.522 663.856,652.581C663.255,651.573 662.432,649.24 661.323,648.163C661.037,649.737 660.749,651.309 660.459,652.881C662.589,656.249 664.602,659.7 666.609,663.14C667.048,663.892 666.05,665.495 665.448,664.417C663.756,661.383 661.904,658.496 659.948,655.648C659.685,657.064 659.42,658.48 659.154,659.896C659.747,660.497 660.158,661.228 660.552,662.063C661.524,664.129 662.523,666.047 663.826,667.938C664.247,668.55 663.522,670.19 662.98,669.403C662.034,668.029 661.104,666.647 660.324,665.171C659.795,664.17 659.383,663.153 658.687,662.37C658.278,664.53 657.866,666.687 657.449,668.844C657.182,670.223 655.77,670.001 655.967,668.609C656.255,666.561 656.547,664.514 656.844,662.462C654.971,664.342 653.007,666.112 650.998,667.856C650.183,668.564 649.945,667.047 650.399,666.528C652.595,664.016 654.818,661.555 657.245,659.264C657.269,659.242 657.293,659.22 657.317,659.2C657.502,657.94 657.687,656.68 657.874,655.416C654.995,658.005 652.059,660.58 648.952,662.861C648.244,663.381 648.149,661.851 648.506,661.476C651.579,658.247 654.968,655.263 658.333,652.333C658.548,650.902 658.763,649.472 658.98,648.042C657.241,649.078 655.398,651.337 653.995,652.533C652.142,654.113 650.323,655.743 648.38,657.211C647.568,657.823 647.378,656.012 647.848,655.562C651.482,652.073 655.425,648.764 659.354,645.592ZM173.6,527.176C171.363,509.517 169.758,491.717 167.607,474.134C165.992,460.942 164.374,447.75 162.819,434.551C162.042,427.951 161.265,421.35 160.487,414.75C160.294,413.114 160.019,411.433 159.753,409.734C157.93,410.816 156.176,412.229 154.317,413.188C154.047,413.327 153.804,413.33 153.593,413.241L153.536,413.316C152.817,414.251 152.14,412.48 152.274,411.915C153.469,406.869 156.063,402.191 158.193,397.488C158.414,396.998 159.086,396.546 159.593,396.983C163.263,400.142 166.522,403.595 169.475,407.436C169.907,407.998 170.361,410.795 168.861,410.276C167.114,409.673 164.621,408.524 162.554,408.651C162.819,411.612 162.962,414.585 163.29,417.344L165.644,437.141C167.174,450.011 168.629,462.89 170.102,475.767C172.016,492.514 174.461,509.334 176.34,526.167C177.28,526.655 178.085,527.75 178.786,528.396C181.418,530.818 184.085,533.233 186.603,535.773C187.143,536.317 186.808,537.926 185.958,537.186C183.544,535.083 181.199,532.933 178.689,530.943C178.34,530.666 177.414,529.754 176.668,529.16C176.896,531.284 177.114,533.409 177.32,535.534C177.929,535.969 178.495,536.526 178.985,536.905C181.555,538.894 184.124,540.883 186.695,542.872C187.452,543.459 187.19,545.742 186.234,544.99C184.402,543.551 182.57,542.111 180.738,540.672C179.714,539.866 178.674,538.846 177.589,538.383C177.786,540.531 177.969,542.679 178.137,544.826C179.864,546.345 181.535,547.91 183.159,549.549C183.908,550.304 183.393,552.569 182.266,551.502C180.97,550.274 179.668,549.05 178.36,547.832C178.49,549.658 178.607,551.482 178.711,553.307C178.772,554.371 177.679,554.076 177.529,553.246C177.182,551.328 176.85,549.406 176.531,547.48C175.48,549.622 174.477,551.918 172.882,553.597C172.262,554.249 171.889,552.893 172.062,552.451C173.168,549.614 174.994,547.118 176.003,544.213C175.705,542.33 175.42,540.444 175.144,538.555C174.942,538.685 174.738,538.85 174.533,539.052C173.287,540.276 172.369,542.541 171.461,544.001C170.357,545.773 169.241,547.534 168.123,549.297C167.55,550.203 166.599,548.4 167.003,547.732C168.693,544.936 170.396,542.15 172.109,539.369C172.683,538.436 173.642,536.093 174.67,535.228C174.45,533.653 174.237,532.078 174.029,530.501C170.982,533.609 168.914,538.455 166.321,541.875C165.923,542.399 165.551,541.341 165.7,541.008C167.092,537.897 168.762,535.06 170.629,532.217C171.23,531.302 172.427,528.726 173.6,527.176ZM0,497.168C0.359,497.054 0.679,496.957 0.908,496.867C3.348,495.91 5.779,494.888 8.281,494.105C9.066,493.86 10.685,495.081 9.589,495.602C7.633,496.53 5.594,497.269 3.576,498.052C2.823,498.345 1.414,498.635 0.449,499.177C2.365,500.225 4.268,501.292 6.149,502.389C8.476,501.423 10.932,500.827 13.473,500.756C14.443,500.73 16.055,502.386 14.494,502.609C12.494,502.893 10.585,503.294 8.714,503.914C10.516,505.006 12.293,506.13 14.035,507.296C14.453,507.575 14.178,508.095 13.712,507.908C11.544,507.039 9.392,506.103 7.255,505.116C8.614,507.617 9.883,510.258 10.62,512.984C10.905,514.039 9.084,513.562 8.798,512.954C7.38,509.935 6.098,506.935 4.37,504.068C4.294,503.943 4.257,503.816 4.253,503.694C2.83,503.004 1.412,502.294 0,501.57L0,497.168ZM0,502.449C0.505,503.732 1.208,505.142 1.42,505.739C2.074,507.574 2.678,509.419 3.219,511.29C3.483,512.204 1.848,511.825 1.603,511.263C1.037,509.963 0.51,508.657 0,507.343L0,502.449ZM1000,507.343C999.601,506.314 999.213,505.28 998.824,504.242C998.476,503.31 997.352,501.449 997.08,500.052C995.461,499.199 993.849,498.332 992.242,497.459C992.387,499.218 993.563,501.651 993.97,503.068C994.539,505.05 995.096,507.033 995.56,509.043C995.78,509.993 994.198,509.449 993.982,508.854C992.433,504.587 990.963,500.283 989.525,495.976C986.644,494.399 983.781,492.817 980.927,491.277C969.896,485.324 958.893,479.321 947.919,473.266C928.601,462.609 909.35,451.826 890.196,440.879C890.233,441.572 890.326,442.295 890.332,442.792C890.349,444.392 890.426,445.992 890.468,447.592C890.481,448.102 889.797,448.254 889.422,448.206C889.126,448.168 888.872,448.108 888.653,448.028C888.242,448.045 887.655,447.81 887.479,447.611C885.477,445.358 884.102,442.472 882.735,439.798C882.097,438.547 879.824,435.63 880.657,434.088C881.463,432.598 884.987,433.381 886.224,433.395C889.453,433.43 892.684,433.42 895.912,433.427C896.671,433.429 898.632,434.679 897.261,435.331C895.546,436.147 892.03,437.04 890.698,438.689C910.013,449.748 929.401,460.67 948.907,471.393C960.181,477.59 971.488,483.722 982.813,489.822C985.44,491.237 988.101,492.631 990.77,494.03C993.721,492.374 996.788,490.924 1000,489.873L1000,491.69C997.362,492.578 994.438,493.733 993.046,495.223C994.744,496.115 996.442,497.013 998.133,497.921C998.705,497.593 999.405,497.358 1000,497.168L1000,501.57L999.623,501.377C999.72,501.707 999.851,502.073 1000,502.449L1000,507.343ZM437.906,378.97C438.699,377.111 439.499,375.254 440.307,373.399C440.784,372.305 441.909,372.705 441.509,373.845C440.789,375.904 440.058,377.96 439.317,380.011C441.382,379.011 443.459,378.048 445.551,377.102C445.684,377.042 445.909,377.058 446.011,377.176C446.115,377.296 446.219,377.415 446.323,377.535C446.338,377.552 446.338,377.577 446.33,377.598C445.826,378.891 444.984,379.074 443.738,379.712C442.006,380.6 440.256,381.445 438.496,382.277C437.684,384.503 436.862,386.726 436.032,388.945L436.043,388.942C437.166,388.649 438.848,387.25 439.884,386.679C441.38,385.856 442.851,385.013 444.42,384.337C445.19,384.006 444.927,385.394 444.572,385.67C442.461,387.309 440.164,388.784 437.867,390.15C437.074,390.622 436.104,391.323 435.12,391.371C434.327,393.473 433.527,395.572 432.72,397.67C432.996,397.638 433.315,397.56 433.692,397.433C437.424,396.171 440.662,393.655 444.324,392.232C444.666,392.099 444.608,392.683 444.46,392.824C440.974,396.157 436.181,398.675 431.676,400.375C426.813,412.934 421.757,425.425 416.818,437.925C409.789,455.718 402.684,473.699 394.044,490.827C396.323,491.233 398.977,490.862 401.039,491.054C401.399,491.087 401.627,491.283 401.749,491.559L401.802,491.532C402.828,491.006 402.671,493.106 402.029,493.513C398.796,495.563 395.42,497.397 392.21,499.471C391.239,500.099 389.305,502.446 387.925,501.537C386.573,500.648 386.248,496.203 385.938,494.719C385.323,491.781 384.928,488.806 384.714,485.814C384.668,485.164 385.493,483.667 386.28,484.361C388.057,485.927 389.619,488.517 391.485,489.834C391.574,489.897 391.665,489.956 391.758,490.013C405.993,460.076 417.431,429.075 429.849,398.401C428.479,395.642 427.463,392.777 426.771,389.742C426.595,388.967 427.795,387.652 428.075,388.782C428.633,391.028 429.344,393.201 430.325,395.302C430.478,395.63 430.613,395.929 430.743,396.196C431.567,394.172 432.395,392.148 433.229,390.126C432.916,389.398 432.84,388.487 432.674,387.765C432.171,385.573 431.694,383.377 431.231,381.176C431.089,380.504 432.121,379.336 432.375,380.334C432.805,382.026 433.237,383.717 433.636,385.418C433.798,386.111 433.868,387.116 434.155,387.888C435.1,385.61 436.054,383.334 437.017,381.062C436.086,379.278 435.296,377.344 435.022,375.373C434.96,374.926 435.778,373.499 436.107,374.369C436.702,375.937 437.222,377.475 437.906,378.97ZM0,489.874C0.989,489.55 1.991,489.264 3.008,489.022C3.679,488.863 5.144,489.962 4.151,490.328C3.167,490.689 1.639,491.138 0,491.69L0,489.874ZM612.532,272.805C610.396,274.059 608.129,277.204 606.636,278.728C606.313,279.058 606.025,278.883 605.822,278.54C605.418,278.969 604.895,277.982 604.921,277.612C605.136,274.476 606.135,271.376 607.047,268.379C607.503,266.876 607.931,265.338 608.534,263.884C608.679,263.018 609.001,262.136 609.565,261.219C609.816,260.809 610.122,260.712 610.42,260.811C610.569,260.782 610.73,260.831 610.886,260.949C615.445,264.383 619.427,268.31 622.994,272.759C623.226,273.05 623.509,274.441 622.74,274.261C620.468,273.729 616.498,271.983 614.05,272.267C618.887,288.627 623.495,305.054 627.982,321.514C631.027,332.682 634.331,343.946 637.192,355.28C638.329,355.765 639.498,356.801 640.189,357.289C642.01,358.575 644.03,359.825 645.043,361.85C645.13,362.027 645.214,362.673 644.828,362.596C643.371,362.307 642.499,361.205 641.339,360.312C640.656,359.786 639.956,359.282 639.244,358.795C638.738,358.449 638.283,358.124 637.851,357.924C638.313,359.806 638.762,361.691 639.194,363.577C641.751,363.836 644.935,366.967 646.479,368.092C646.992,368.466 646.997,370.22 646.201,369.719C644.566,368.691 641.915,366.147 639.712,365.875C640.093,367.597 640.458,369.319 640.807,371.044C641.94,371.248 643.218,372.069 643.939,372.534C645.401,373.479 646.45,374.7 647.422,376.128C647.835,376.735 647.469,378.103 646.763,377.22C645.813,376.031 644.565,374.984 643.259,374.201C642.532,373.766 641.88,373.501 641.295,373.524C641.647,375.357 641.977,377.19 642.283,379.024C642.359,379.48 641.888,379.425 641.771,379.074C641.216,377.405 640.677,375.728 640.152,374.044C639.886,374.307 639.637,374.676 639.405,375.171C638.793,376.476 638.348,377.979 637.854,379.331C637.563,380.128 637.611,380.462 636.867,380.742C636.802,380.767 636.735,380.677 636.723,380.623C636.344,378.919 637.302,376.959 637.763,375.322C638.052,374.294 638.316,372.105 639.315,371.315C638.818,369.671 638.334,368.022 637.861,366.37C637.831,366.394 637.801,366.42 637.771,366.447C636.706,367.405 636.101,370.037 635.557,371.357C635.084,372.508 634.619,373.658 634.096,374.787C633.745,375.543 632.964,374.262 633.116,373.774C633.864,371.366 634.676,368.898 635.669,366.579C636.038,365.717 636.478,364.749 637.229,364.14C636.705,362.272 636.193,360.399 635.689,358.521C635.628,358.595 635.566,358.676 635.504,358.763C633.627,361.388 634.131,365.79 631.65,368.009C631.537,368.111 631.409,367.901 631.406,367.808C631.32,365.254 632.518,362.762 633.261,360.335C633.61,359.199 633.904,356.672 634.905,355.567C631.885,344.073 629.154,332.476 626.071,321.075C621.707,304.943 617.151,288.864 612.532,272.805ZM167.218,179.878L167.19,179.943C165.845,183.048 164.49,186.297 163.511,189.548L163.503,189.574C163.478,189.88 163.321,190.033 163.105,190.074C162.898,190.152 162.651,190.088 162.412,189.944C161.982,189.744 161.567,189.36 161.471,188.976C160.588,185.443 160.008,181.859 159.472,178.258C159.031,175.3 157.926,171.58 158.396,168.612C158.469,168.158 158.765,167.998 159.183,167.945C161.621,167.636 164.959,169.166 167.288,169.78C170.724,170.685 174.153,171.623 177.599,172.49C178.25,172.654 179.499,174.325 178.364,174.664C176.279,175.286 174.171,175.813 172.067,176.369C170.486,176.787 169.488,176.974 168.681,177.66C183.577,195.236 198.469,212.81 213.358,230.386C222.103,240.708 230.863,251.016 239.591,261.352C242.433,264.715 245.272,268.081 248.073,271.477C249.34,271.323 250.972,271.642 251.803,271.645C254.803,271.657 257.797,271.574 260.742,272.186C260.999,272.24 261.492,272.936 261.043,273.043C258.988,273.535 256.932,273.514 254.825,273.535C253.476,273.549 251.32,273.24 249.779,273.554C250.602,274.562 251.421,275.573 252.235,276.587C252.344,276.723 252.454,276.858 252.564,276.993C253.611,276.694 255.17,277.064 256.021,277.102C258.444,277.209 260.914,277.24 263.239,277.964C263.577,278.069 264.054,278.829 263.462,278.9C261.612,279.122 259.743,278.837 257.879,278.812C256.465,278.793 255.309,278.717 254.465,279.281C255.532,280.541 256.616,281.796 257.684,283.063C260.501,283.213 263.257,283.563 266.045,284.071C266.713,284.193 267.409,285.87 266.445,285.744C264.905,285.541 263.364,285.395 261.819,285.248C261.259,285.195 260.125,284.912 259.171,284.852C260.686,286.71 262.136,288.611 263.417,290.609C263.621,290.927 263.301,291.196 263.021,290.945C261.105,289.225 259.324,287.333 257.599,285.378C257.163,286.343 257.414,288.853 257.382,289.663C257.326,291.094 257.297,292.531 257.117,293.952C257.034,294.615 256.136,293.92 256.103,293.525C255.832,290.254 256.06,286.944 255.937,283.665C255.935,283.6 255.938,283.536 255.948,283.474C255.123,282.509 254.306,281.539 253.487,280.574C253.427,280.721 253.372,280.88 253.32,281.052C252.323,284.391 252.754,288.299 251.972,291.73C251.847,292.282 251.143,291.713 251.117,291.37C250.907,288.677 251.088,285.951 251.189,283.254C251.236,282.032 250.924,279.623 251.421,278.171C251.053,277.751 250.683,277.334 250.31,276.921C249.589,276.122 248.872,275.32 248.158,274.515C248.142,274.542 248.127,274.57 248.113,274.599C247.326,276.182 247.891,280.146 247.826,281.911C247.748,284.022 247.496,286.063 247.14,288.146C247.06,288.615 246.48,288.108 246.443,287.853C245.992,284.756 245.884,281.817 246.041,278.707C246.115,277.208 245.665,274.028 246.386,272.504C243.334,269.022 240.33,265.497 237.321,261.979C228.743,251.949 220.179,241.906 211.608,231.87C196.811,214.542 182.015,197.212 167.218,179.878ZM609.688,273.125C609.677,273.147 609.667,273.169 609.656,273.191L609.644,273.217L609.727,273.137L609.775,273.09C609.756,273.081 609.737,273.071 609.718,273.06L609.688,273.125ZM609.069,269.172C609.011,269.396 608.952,269.619 608.893,269.843L608.898,269.845C608.905,269.848 608.912,269.851 608.919,269.854L608.936,269.861L608.946,269.842L608.99,269.763C608.996,269.602 609.03,269.431 609.103,269.295L609.092,269.256L609.069,269.172ZM827.533,111.034C827.82,109.744 828.107,108.455 828.393,107.167C828.675,105.9 829.998,106.167 829.751,107.439C829.515,108.652 829.279,109.866 829.041,111.081C830.203,110.233 831.341,109.349 832.537,108.56C833.239,108.097 833.142,109.51 832.887,109.819C831.681,111.278 830.154,112.474 828.566,113.504C828.305,114.833 828.043,116.163 827.781,117.488C828.662,116.992 829.906,115.946 830.365,115.649C831.4,114.977 832.374,114.216 833.423,113.57C833.966,113.235 833.898,114.29 833.69,114.531C832.451,115.964 830.911,117.164 829.413,118.317C828.976,118.653 828.114,119.472 827.333,119.744C827.13,120.77 826.925,121.797 826.721,122.821C829.173,122.038 831.003,119.594 833.565,118.946C834.046,118.824 833.864,119.663 833.715,119.842C831.832,122.12 828.857,123.725 826.251,125.169C818.504,163.779 809.859,202.49 799.133,240.336C800.152,240.061 801.178,239.549 802.104,239.266C803.813,238.744 805.57,238.492 807.328,238.198C807.459,238.176 807.576,238.176 807.678,238.194C807.819,238.185 807.953,238.264 808.058,238.392C808.623,238.97 808.287,240.575 807.808,241.053C807.592,241.269 807.373,241.481 807.149,241.689C806.148,243.212 804.72,244.533 803.508,245.803C801.991,247.393 800.405,248.914 798.78,250.392C798.168,250.949 797.25,252.151 796.371,252.364C794.219,252.885 793.368,249.51 792.681,248.084C790.914,244.422 789.453,240.659 788.028,236.853C787.784,236.202 788.093,234.235 789.178,234.556C792.403,235.507 793.747,238.749 796.565,240.217C796.598,240.234 796.631,240.251 796.664,240.266C801.757,219.266 807.356,198.385 812.37,177.364C816.571,159.751 820.584,142.11 824.538,124.451C823.118,122.178 821.627,119.929 820.327,117.59C820.045,117.084 820.577,115.608 821.119,116.339C822.102,117.664 822.955,119.083 823.873,120.455C824.273,121.054 824.601,121.781 825.022,122.29C825.261,121.224 825.499,120.157 825.737,119.091C825.128,118.316 824.609,117.131 824.249,116.512C823.458,115.148 822.652,113.81 822.656,112.221C822.657,112.018 822.815,111.694 823.061,111.812C824.134,112.328 824.483,113.573 825.05,114.592C825.349,115.13 825.738,116.249 826.203,117.001C826.487,115.73 826.77,114.46 827.053,113.189C825.827,111.561 824.446,109.629 824.114,107.656C824.079,107.452 824.316,106.669 824.649,106.974C825.369,107.632 825.763,108.538 826.303,109.347C826.69,109.927 827.102,110.488 827.533,111.034ZM1000,161.773L1000,167.98C998.723,171.098 997.437,174.21 996.138,177.316C997.86,180.425 999.118,183.635 1000,187.062L1000,190.487C999.696,190.733 999.35,190.748 999.212,190.209C998.718,188.267 997.267,182.032 995.257,179.417C994.833,180.427 994.407,181.436 993.979,182.444C994.214,183.167 994.316,183.982 994.437,184.435C995.202,187.32 996.105,190.175 996.81,193.074C997.006,193.881 995.801,195.193 995.421,194.029C994.949,192.58 994.223,187.64 992.814,185.182C992.401,186.148 991.986,187.114 991.57,188.078C991.956,189.18 992.104,190.669 992.279,191.338C992.75,193.135 993.607,195.043 993.19,196.889C993.156,197.04 992.941,197.441 992.712,197.308C991.673,196.707 991.621,195.483 991.268,194.378C990.965,193.426 990.774,191.974 990.376,190.832C989.749,192.273 989.119,193.708 988.485,195.14C987.968,196.308 986.791,195.817 987.227,194.626C987.834,192.969 988.447,191.314 989.067,189.657L989.045,189.685C988.81,189.852 988.576,190.019 988.342,190.186C987.524,190.725 986.664,191.195 985.835,191.715C984.712,192.418 983.742,193.3 982.43,193.53C982.147,193.58 982.238,193.079 982.32,192.966C983.581,191.219 985.58,190.015 987.24,188.658C987.816,188.188 989.118,186.833 990.165,186.741C990.538,185.756 990.913,184.771 991.29,183.788C991.182,183.768 991.071,183.763 990.958,183.773C989.589,183.896 987.24,186.192 986.138,186.924C984.563,187.971 982.964,189.021 981.316,189.948C980.259,190.542 980.411,188.814 981.004,188.359C983.444,186.487 986.098,184.947 988.687,183.299C989.515,182.771 991.099,181.137 992.364,180.995C992.72,180.075 993.077,179.155 993.434,178.241C991.471,178.198 987.957,180.901 986.4,181.802C984.566,182.861 982.712,183.882 980.86,184.909C980.221,185.263 980.347,184.242 980.675,183.969C984.883,180.465 989.574,177.87 994.498,175.524C996.305,170.93 998.143,166.347 1000,161.773ZM0,187.062C0.191,187.801 0.363,188.549 0.519,189.31C0.599,189.7 0.324,190.225 0,190.487L0,187.062ZM521.5,114.149C521.624,113.176 522.232,112.128 522.643,111.435C524.053,109.057 525.588,107.089 526.529,104.435C526.889,103.42 529.485,102.747 529.041,104.143C528.523,105.773 527.884,107.308 526.982,108.766C526.368,109.758 524.623,111.317 524.573,112.399C524.566,112.543 524.578,112.682 524.608,112.816C527.947,111.388 531.29,109.973 534.64,108.572C535.324,108.286 535.702,108.938 535.015,109.288C531.854,110.896 528.686,112.491 525.515,114.073C527.881,115.868 534.01,116.379 535.925,116.89C536.827,117.131 535.563,118.2 535.027,118.15C531.96,117.865 528.945,117.376 525.908,116.857C524.911,116.687 522.974,116.648 522.033,115.804C520.437,116.595 518.84,117.383 517.248,118.165C518.474,118.961 520.573,119.267 521.764,119.758C523.398,120.433 524.98,121.234 526.565,122.016C527.502,122.479 526.108,123.573 525.419,123.317C522.754,122.329 520.077,121.362 517.326,120.641C516.563,120.441 515.08,120.264 514.072,119.72C512.668,120.406 511.262,121.09 509.856,121.772C509.873,121.785 509.89,121.798 509.908,121.811C512.855,123.925 517.274,124.875 520.536,126.595C521.154,126.921 520.296,127.564 519.877,127.519C516.905,127.199 514.332,126.194 511.597,125.037C510.704,124.66 508.313,124.025 506.832,123.235C472.792,139.662 438.166,155.031 403.788,170.695C404.743,171.391 406.043,171.919 406.948,172.533C408.284,173.441 409.542,174.438 410.78,175.476C411.81,176.34 409.822,177.56 409.039,177.448C408.516,177.373 407.996,177.268 407.479,177.142C404.643,177.146 401.825,176.867 398.995,176.602C397.323,176.446 393.183,176.851 392.532,174.633C392.015,172.864 394.023,170.008 394.842,168.586C396.433,165.824 398.205,163.129 399.916,160.437C400.275,159.87 402.609,158.657 402.601,160.121C402.587,162.141 401.79,166.542 402.537,168.986C436.757,152.918 470.914,136.468 505.5,121.141C505.601,119.877 506.346,118.271 506.622,117.412C507.468,114.778 508.594,112.32 509.888,109.875C510.318,109.061 512.338,108.82 511.762,110.061C510.675,112.403 508.155,116.802 508.658,119.745C510.127,119.097 511.596,118.452 513.067,117.809C513.244,116.859 513.96,115.815 514.279,115.086C515.505,112.286 516.479,109.383 517.729,106.597C518.01,105.972 519.756,105.498 519.551,106.573C519.154,108.661 518.427,110.682 517.65,112.659C517.18,113.855 516.218,115.195 516.23,116.429C517.986,115.666 519.743,114.906 521.5,114.149ZM0,161.773C11.46,133.543 23.662,105.572 33.78,76.857C31.855,77.46 29.874,77.778 27.843,77.82C27.484,77.827 27.237,77.656 27.078,77.403C26.282,77.584 26.294,75.825 26.832,75.284C26.977,75.138 27.123,74.992 27.268,74.847C27.729,73.91 28.456,73.304 29.404,72.565C29.676,72.353 29.949,72.141 30.222,71.93C31.121,71.057 32.027,70.19 32.943,69.331C34.472,67.896 36.004,65.927 37.939,65.055C38.238,64.92 38.745,64.991 38.965,65.253C40.144,66.665 40.546,68.937 41.05,70.682C41.755,73.122 42.299,75.595 42.737,78.096C42.929,79.189 41.727,81.842 40.321,80.678C39.044,79.62 37.868,78.506 36.84,77.198C36.636,76.938 36.489,76.735 36.368,76.582C29.893,95.122 22.091,113.225 14.746,131.415C9.833,143.58 4.986,155.813 0,167.98L0,161.773ZM314.235,0C311.049,12.988 307.731,25.945 304.383,38.896C304.474,38.89 304.566,38.881 304.658,38.868C307.331,38.492 309.459,37.666 312.252,37.884C312.34,37.891 312.42,37.907 312.493,37.93C312.936,37.801 313.127,38.316 313.105,38.861C313.173,39.742 312.661,40.946 312.163,41.264C311.514,41.677 310.826,42.179 310.113,42.699C307.679,45.133 304.994,47.332 302.138,49.234C301.781,49.473 301.196,49.39 300.974,48.996C298.778,45.112 296.729,41.142 295.121,36.975C294.829,36.219 295.449,33.584 296.699,34.499C298.323,35.688 300.236,37.612 302.234,38.469C305.63,25.677 308.878,12.845 312.063,0L314.235,0ZM577.088,0C577.295,1.075 577.501,2.15 577.706,3.225C582.125,4.891 586.574,9.23 590.184,11.897C590.934,12.45 590.608,14.435 589.548,13.634C587.116,11.795 584.645,10.073 582.081,8.428C581.133,7.819 580.203,7.147 579.222,6.593C578.909,6.362 578.578,6.164 578.229,6.002C578.458,7.228 578.683,8.455 578.903,9.683C580.14,10.412 581.572,11.8 582.23,12.274C584.856,14.167 587.548,15.99 590.057,18.038C590.585,18.469 590.531,20.379 589.626,19.808C587.198,18.278 584.907,16.516 582.581,14.835C581.849,14.304 580.536,13.003 579.356,12.271C579.577,13.559 579.79,14.847 579.994,16.137C580.959,16.612 581.924,17.635 582.52,18.131C584.781,20.016 586.991,21.975 589.193,23.928C589.865,24.523 589.574,26.478 588.569,25.634C586.962,24.286 585.377,22.91 583.785,21.542C583.296,21.121 581.595,19.339 580.363,18.556C580.835,21.757 581.237,24.962 581.536,28.174C581.582,28.665 581.103,28.552 580.996,28.189C580.093,25.123 579.289,22.024 578.556,18.902C577.551,20.264 576.367,23.134 576.069,23.748C575.299,25.328 574.632,26.955 573.833,28.521C573.307,29.551 572.477,28.145 572.706,27.452C573.588,24.791 574.885,22.285 576.157,19.791C576.572,18.978 577.132,17.25 577.983,16.392C577.678,15.026 577.386,13.655 577.104,12.283C576.052,13.619 574.634,17.229 574.14,18.055C572.929,20.078 571.63,22.052 570.337,24.023C569.799,24.843 569.053,23.249 569.403,22.648C571.103,19.734 572.74,16.786 574.384,13.84C574.88,12.95 575.588,10.794 576.598,9.768C576.363,8.578 576.134,7.386 575.91,6.193C574.369,7.486 573.089,11.195 572,12.892C570.761,14.823 569.386,16.665 568.129,18.585C567.735,19.187 567.233,18.022 567.459,17.599C569.884,13.065 571.971,7.302 575.39,3.378C575.185,2.252 574.982,1.126 574.782,0L577.088,0Z" style="fill-rule:nonzero;"/>
</svg>
