<?xml version="1.0" encoding="UTF-8" standalone="no"?>
<!DOCTYPE svg PUBLIC "-//W3C//DTD SVG 1.1//EN" "http://www.w3.org/Graphics/SVG/1.1/DTD/svg11.dtd">
<svg width="100%" height="100%" viewBox="0 0 1000 1000" version="1.1" xmlns="http://www.w3.org/2000/svg" xmlns:xlink="http://www.w3.org/1999/xlink" xml:space="preserve" xmlns:serif="http://www.serif.com/" style="fill-rule:evenodd;clip-rule:evenodd;stroke-linejoin:round;stroke-miterlimit:2;">
    <path d="M197.538,1000C194.184,997.954 189.958,997.206 186.013,997.953C183.783,998.075 181.892,998.818 180.347,1000L197.538,1000ZM655.544,989.773C653.663,943.294 661.26,896.184 676.461,852.272C683.203,832.792 691.529,813.856 701.352,795.733C710.769,778.356 721.541,762.633 738.395,751.733C754.415,741.372 774.39,733.673 793.278,730.832C803.008,729.369 812.875,730.121 821.621,734.909C829.4,739.167 835.789,745.639 841.587,752.249C868.411,782.83 880.483,822.885 889.038,861.843C893.655,882.866 896.984,904.292 902.654,925.068C907.384,942.4 915.096,960.95 930.672,971.167L930.673,971.166C930.927,971.035 931.184,970.91 931.444,970.791C931.523,970.755 931.602,970.719 931.682,970.684C931.716,970.669 931.75,970.654 931.784,970.639C931.795,970.635 931.808,970.632 931.818,970.625C931.822,970.622 931.821,970.617 931.823,970.613C931.829,970.598 931.836,970.583 931.843,970.568C931.866,970.516 931.892,970.466 931.922,970.418C932.007,970.281 932.121,970.161 932.267,970.09C932.285,970.081 932.304,970.073 932.323,970.064C932.363,970.046 932.403,970.029 932.444,970.011C932.564,969.959 932.685,969.908 932.807,969.858C933.177,969.708 933.553,969.57 933.933,969.445C935.393,968.967 936.917,968.69 938.453,968.634C939.867,968.582 941.288,968.717 942.667,969.035C944.205,969.389 945.69,969.968 947.063,970.746C948.419,971.515 949.664,972.478 950.75,973.597C951.365,974.23 951.928,974.913 952.433,975.638C952.923,976.341 953.357,977.083 953.731,977.854C954.169,978.758 954.524,979.702 954.792,980.671C955.212,982.187 955.42,983.763 955.417,985.336C955.415,986.292 955.335,987.249 955.176,988.192C955.014,989.153 954.771,990.101 954.452,991.022C954.043,992.199 953.509,993.333 952.864,994.399C952.216,995.47 951.457,996.473 950.602,997.388C949.915,998.124 949.167,998.803 948.368,999.415C948.173,999.565 947.974,999.711 947.773,999.852C947.723,999.888 947.672,999.923 947.621,999.958C947.621,999.958 947.56,1000 947.56,1000C941.014,1000.01 934.468,1000.01 927.922,1000C927.911,1000 927.904,999.987 927.895,999.981C927.867,999.962 927.84,999.944 927.812,999.925C927.712,999.856 927.612,999.786 927.512,999.716C927.125,999.439 926.748,999.148 926.383,998.843C924.821,997.536 923.472,995.965 922.468,994.191C922.083,993.511 921.749,992.802 921.475,992.07C921.189,991.305 920.967,990.516 920.818,989.712C920.635,988.728 920.562,987.724 920.6,986.723C920.61,986.461 920.628,986.199 920.653,985.937C920.681,985.645 920.719,985.353 920.762,985.063C920.851,984.472 920.967,983.885 921.112,983.305C921.393,982.18 921.778,981.082 922.262,980.028C922.768,978.925 923.381,977.87 924.089,976.884C924.897,975.757 925.829,974.719 926.863,973.795C927.358,973.354 927.876,972.939 928.414,972.552L928.42,972.547C914.518,962.685 907.025,946.053 902.217,930.169C895.645,908.457 892.332,885.71 887.469,863.578C878.946,824.798 867.027,784.844 840.206,754.468C833.676,747.073 826.165,739.595 816.828,735.911C806.193,731.713 794.512,733.188 783.742,736.025C765.318,740.878 746.255,748.195 731.221,760.144C715.226,772.857 705.353,791.416 696.438,809.413C687.24,827.978 679.606,847.319 673.575,867.14C661.465,906.944 656.441,948.182 657.338,989.729L657.321,988.891C657.925,988.855 658.503,988.848 659.034,988.861C662.621,988.951 666.185,990.428 668.247,993.458C669.554,995.377 669.924,997.692 669.628,1000L667.077,1000C667.52,997.304 666.679,994.593 663.878,993.017C662.685,992.345 660.964,991.835 659.127,991.604C659.059,991.629 658.995,991.662 658.912,991.662C656.756,991.661 654.426,991.454 652.437,992.377C650.016,993.501 648.281,997.087 648.309,1000L646.296,1000C646.396,996.994 647.506,993.504 649.25,991.408C650.881,989.448 653.159,988.975 655.515,989.042L655.544,989.773ZM930.548,974.197C930.288,974.357 930.033,974.525 929.783,974.699C929.291,975.042 928.819,975.412 928.368,975.807C927.303,976.738 926.359,977.806 925.558,978.972C924.864,979.981 924.277,981.062 923.801,982.19C923.702,982.425 923.608,982.662 923.518,982.901C923.441,983.107 923.367,983.314 923.298,983.523C923.203,983.812 923.118,984.104 923.044,984.399C922.911,984.926 922.812,985.461 922.753,986.001C922.691,986.554 922.672,987.113 922.696,987.669C922.73,988.429 922.846,989.185 923.045,989.92C923.194,990.467 923.387,991.001 923.621,991.517C923.782,991.872 923.962,992.217 924.16,992.553C924.305,992.799 924.46,993.041 924.623,993.276C925.667,994.779 927.053,996.027 928.604,996.99C928.837,997.135 929.074,997.274 929.315,997.406C929.638,997.583 929.967,997.749 930.302,997.904C930.738,998.105 931.184,998.287 931.636,998.449C932.212,998.655 932.799,998.828 933.394,998.969C934.698,999.277 936.04,999.426 937.38,999.4C938.534,999.377 939.685,999.225 940.808,998.961C942.596,998.539 944.316,997.83 945.883,996.871C946.159,996.702 946.43,996.526 946.696,996.342C948.432,995.138 949.949,993.602 951.058,991.799C951.24,991.503 951.411,991.2 951.569,990.891C951.772,990.497 951.954,990.093 952.115,989.68C952.327,989.138 952.502,988.582 952.637,988.015C952.824,987.23 952.934,986.426 952.965,985.619C953.014,984.376 952.874,983.129 952.579,981.92C952.432,981.321 952.246,980.731 952.019,980.157C951.788,979.575 951.515,979.009 951.201,978.468C950.836,977.838 950.416,977.24 949.947,976.683C949.479,976.127 948.963,975.612 948.408,975.144C947.681,974.53 946.888,973.997 946.05,973.547C945.301,973.144 944.517,972.809 943.711,972.539C943.189,972.364 942.657,972.217 942.12,972.097C941.947,972.059 941.773,972.023 941.599,971.99C941.545,971.98 941.49,971.97 941.436,971.96C941.403,971.954 941.37,971.948 941.337,971.943C941.291,971.936 941.245,971.93 941.198,971.925C941.121,971.915 941.044,971.906 940.967,971.897C940.706,971.868 940.445,971.844 940.183,971.827C939.323,971.77 938.459,971.779 937.6,971.855C936.152,971.984 934.721,972.308 933.359,972.818C932.733,973.053 932.123,973.326 931.531,973.636C931.236,973.791 930.945,973.956 930.66,974.128L930.63,974.147C930.609,974.169 930.591,974.18 930.575,974.18L930.548,974.197ZM115.026,460.83C111.561,462.109 107.58,462.065 103.794,460.225C99.89,458.327 97.045,455.613 96.224,451.227C95.562,447.697 95.486,442.7 97.964,439.791C101.807,435.279 109.222,432.263 114.976,433.6C120.699,434.682 125.066,441.148 124.755,447.344C124.469,453.053 121.237,457.671 116.827,460.021C120.932,471.147 123.026,482.795 124.286,494.562C125.717,507.932 126.752,521.452 127.086,534.895C127.693,559.337 123.944,583.563 118.805,607.391C109.497,650.554 95.271,693.556 95.974,738.179C96.341,761.466 101.346,784.416 111.12,805.583C120.252,825.36 132.683,843.405 152.786,853.068C170.587,861.624 190.666,863.832 210.142,865.001C232.052,866.315 253.888,867.199 275.712,869.763C322.285,875.235 369.096,885.536 413.233,901.483L412.289,901.143C412.629,900.625 413.018,900.137 413.458,899.686C415.2,897.902 417.236,896.991 419.415,896.531C421.583,895.288 425.072,895.213 427.088,895.418C431.194,895.835 434.244,898.584 435.789,902.317C437.256,905.862 437.79,911.039 436.545,914.736C435.331,918.337 431.934,920.23 428.473,921.314C419.543,924.109 412.08,919.461 410.591,910.177C410.233,907.939 410.387,905.544 411.166,903.396L412.844,903.979C360.762,885.807 307.294,873.31 252.163,869.287C215.116,866.584 170.567,870.743 139.17,846.979C122.686,834.504 111.969,814.673 104.645,795.729C96.932,775.779 93.445,754.396 93.62,733.042C93.983,688.662 108.128,646.044 117.208,603.01C122,580.303 125.385,557.257 124.744,533.995C124.408,521.774 123.461,509.521 122.381,497.344C121.279,484.897 119.426,472.58 115.026,460.83ZM426.598,898.004C423.937,898.368 421.011,899.024 418.533,900.246C418.495,900.273 418.456,900.292 418.417,900.303C415.128,901.957 412.657,904.625 412.699,908.956C412.767,915.885 418.304,920.503 424.98,919.629C427.391,919.312 430.442,918.306 432.36,916.692C435.418,914.119 435.724,910.063 435.053,906.314C434.302,902.115 431.659,898.492 427.153,898.04C426.995,898.024 426.809,898.012 426.598,898.004ZM155.327,790.467C161.153,791.638 164.672,797.372 164.709,804.252C164.756,813.01 155.299,818.094 147.382,816.454C139.388,814.797 136.216,803.421 138.999,796.577C141.442,790.569 149.33,788.434 155.327,790.467ZM778.47,790.963C781.26,790.592 784.138,790.834 786.223,792.778C788.822,795.197 789.331,798.92 789.308,802.277C789.282,806.118 789.017,809.376 785.898,811.91C782.916,814.333 779.007,816.676 775.114,815.207C771.636,813.895 768.732,811.357 767.502,807.835C766.361,804.57 765.336,800.081 766.588,796.726C767.804,793.468 771.006,791.603 774.323,791.082C775.963,790.825 777.29,790.805 778.47,790.963ZM160.012,795.743C159.844,795.847 159.64,795.83 159.41,795.613C157.241,793.565 153.72,792.672 150.287,792.899C150.112,792.927 149.935,792.959 149.757,792.993C149.66,793.012 149.571,793.003 149.491,792.972C146.558,793.316 143.77,794.487 142.042,796.461C137.298,801.883 141.439,812.504 148.382,813.495C155.767,814.55 164.139,809.939 162.626,801.441C162.202,799.059 161.292,797.157 160.012,795.743ZM785.777,795.584C781.639,793.285 777.188,793.113 772.67,795.077C766.065,797.951 767.586,807.269 772.525,810.996C778.987,815.872 787.718,809.677 787.69,802.316C787.68,799.749 787.204,797.277 785.777,795.584ZM817.161,575.655C816.085,576.514 814.804,577.143 813.35,577.451C810.298,578.097 806.941,578.309 804.559,575.993C802.725,574.213 801.514,571.405 801.248,568.88C800.82,564.798 803.099,561.169 806.651,559.941C806.685,559.922 806.721,559.907 806.76,559.895C811.353,558.437 819.505,559.783 820.679,565.326C821.348,568.485 820.56,571.752 818.677,574.13L818.209,573.68C832.605,587.494 846.929,601.384 861.409,615.107C874.928,627.919 889.024,638.73 904.563,648.981C920.384,659.418 936.754,669.338 951.213,681.651C964.339,692.831 975.528,706.166 985.932,719.876L985.935,719.874C986.197,719.629 986.471,719.396 986.755,719.176C986.853,719.101 986.952,719.028 987.052,718.956C987.099,718.922 987.146,718.89 987.193,718.856C987.232,718.828 987.27,718.799 987.309,718.771C987.379,718.72 987.449,718.67 987.52,718.621C987.745,718.464 987.976,718.315 988.211,718.174C988.974,717.717 989.787,717.344 990.633,717.069C991.524,716.78 992.45,716.599 993.385,716.536C994.432,716.465 995.488,716.541 996.514,716.764C997.454,716.968 998.367,717.295 999.223,717.734C999.425,717.838 999.624,717.948 999.82,718.065C999.865,718.092 999.91,718.119 999.955,718.146C999.955,718.146 1000,718.174 1000,718.174C1000.01,719.16 1000,720.145 1000,721.131C1000,721.135 999.994,721.126 999.991,721.124C999.985,721.119 999.979,721.114 999.972,721.109C999.957,721.097 999.942,721.085 999.927,721.072C999.88,721.032 999.833,720.991 999.785,720.952C999.728,720.905 999.668,720.863 999.607,720.821C999.512,720.755 999.416,720.69 999.319,720.627C998.829,720.311 998.311,720.039 997.772,719.816C997.139,719.554 996.479,719.361 995.806,719.238C995.15,719.117 994.481,719.062 993.814,719.068C993.499,719.071 993.185,719.087 992.871,719.116C992.773,719.125 992.675,719.135 992.577,719.147C992.548,719.15 992.518,719.154 992.489,719.158C992.488,719.158 992.431,719.165 992.43,719.165C992.429,719.165 992.347,719.192 992.346,719.193C992.304,719.207 992.262,719.221 992.22,719.235C992.095,719.277 991.969,719.32 991.845,719.365C991.444,719.507 991.048,719.661 990.659,719.832C990.17,720.046 989.692,720.285 989.234,720.558C988.769,720.835 988.325,721.145 987.91,721.492C987.62,721.734 987.343,721.993 987.089,722.274C986.737,722.662 986.43,723.09 986.179,723.55C986,723.88 985.85,724.225 985.732,724.581C985.564,725.087 985.46,725.613 985.417,726.144C985.338,727.107 985.456,728.079 985.714,729.007C985.86,729.531 986.05,730.043 986.278,730.538C986.534,731.094 986.837,731.628 987.181,732.134C987.45,732.532 987.746,732.913 988.061,733.277C988.999,734.361 990.125,735.296 991.411,735.938C991.603,736.034 991.798,736.123 991.996,736.205C992.252,736.311 992.514,736.406 992.78,736.487C993.123,736.592 993.473,736.676 993.827,736.736C994.563,736.861 995.315,736.885 996.057,736.808C996.749,736.736 997.43,736.578 998.086,736.348C998.368,736.249 998.646,736.137 998.919,736.013C998.997,735.977 999.076,735.94 999.154,735.902C999.231,735.865 999.308,735.827 999.384,735.786C999.523,735.711 999.658,735.63 999.791,735.547C999.83,735.522 999.869,735.498 999.907,735.474C999.938,735.454 999.999,735.378 1000,735.415C1000.03,736.326 1000,737.238 1000,738.149C1000,738.152 999.994,738.152 999.992,738.154C999.986,738.157 999.98,738.16 999.975,738.163C999.95,738.177 999.926,738.192 999.901,738.207C999.855,738.235 999.809,738.263 999.762,738.289C999.733,738.304 999.703,738.318 999.674,738.333C999.639,738.35 999.604,738.367 999.569,738.384C999.112,738.604 998.642,738.797 998.16,738.957C997.678,739.117 997.185,739.244 996.685,739.333C996.174,739.425 995.656,739.477 995.136,739.489C994.568,739.501 993.999,739.464 993.436,739.378C992.87,739.291 992.311,739.155 991.767,738.974C991.443,738.867 991.125,738.743 990.813,738.605C990.6,738.511 990.39,738.41 990.184,738.303C988.653,737.508 987.313,736.372 986.21,735.051C986.026,734.831 985.849,734.606 985.678,734.376C985.465,734.089 985.262,733.794 985.069,733.493C984.822,733.107 984.591,732.71 984.378,732.305C984.091,731.758 983.836,731.195 983.613,730.62C983.495,730.315 983.385,730.008 983.29,729.696C983.169,729.301 983.07,728.899 982.997,728.492C982.899,727.952 982.846,727.403 982.843,726.854C982.838,726.288 982.886,725.722 982.987,725.165C983.124,724.41 983.358,723.673 983.679,722.976C983.91,722.474 984.186,721.994 984.499,721.538L984.502,721.534C973.162,707.195 962.207,692.757 947.635,681.447C933.101,670.169 917.446,660.348 902.136,650.176C886.997,640.117 872.937,629.561 859.88,616.872C845.785,603.173 831.554,589.617 817.385,575.995C817.291,575.905 817.217,575.788 817.161,575.655ZM4.234,722.869C3.206,720.819 1.725,719.244 0,718.174L0,721.131C4.603,724.722 5.108,732.188 0,735.415L0,738.149C5.364,735.254 6.874,728.135 4.234,722.869ZM243.783,196.884C250.113,186.891 258.451,178.513 267.607,171.083C277.571,162.997 288.184,155.752 298.252,147.797C309.306,139.063 319.983,129.869 330.862,120.92C351.971,103.558 374.225,86.898 399.99,77.11C422.107,68.708 446.563,65.781 469.372,73.177C488.961,79.529 506.634,93.025 514.958,112.225C524.588,134.436 520.445,160.342 510.081,181.503C498.518,205.114 479.487,223.953 461.165,242.359C439.628,263.994 418.116,285.655 396.628,307.339C377.312,326.831 356.706,346.927 346.131,372.792C335.28,399.331 337.11,428.795 357.376,450.223C374.502,468.331 398.837,479.318 422.176,486.958C469.563,502.47 519.93,504.146 568.866,511.718C592.95,515.444 616.99,520.615 639.717,529.578C660.669,537.842 682.358,549.265 696.694,567.131C710.968,584.921 713.551,607.722 705.356,628.792C696.817,650.748 679.843,668.476 661.007,682.075C622.478,709.891 573.999,723.157 526.669,720.078C502.529,718.507 479.299,712.369 457.095,702.88C432.182,692.232 407.947,678.684 380.824,674.673C382.967,681.698 380.729,689.944 370.562,691.256C361.806,692.386 353.964,687.412 354.012,678.123C354.05,670.73 360.642,664.019 367.968,664.416C372.809,663.733 377.01,666.919 379.415,671.321C391.453,672.932 403.062,676.352 414.363,680.761C438.291,690.093 460.627,703.275 485.469,710.254C508.394,716.693 532.465,718.814 556.186,716.914C602.739,713.183 651.723,693.592 683.5,658.451C699.916,640.299 713.165,614.96 706.101,589.976C699.28,565.851 676.347,550.309 655.06,539.804C611.693,518.401 562.615,513.844 515.292,508.052C469.006,502.386 420.698,495.672 380.037,471.169C361.315,459.887 344.58,443.826 339.337,421.912C333.804,398.783 341.1,374.32 353.299,354.568C366.994,332.391 386.503,314.369 404.718,295.996C425.319,275.216 445.945,254.458 466.43,233.563C485.015,214.607 503.907,194.323 512.9,168.827C521.624,144.09 519.905,115.751 500.94,96.217C485.454,80.267 462.618,72.312 440.631,72.644C414.061,73.045 388.834,84.005 366.815,98.203C343.327,113.348 322.828,132.52 301.015,149.869C281.987,165.003 259.566,177.844 245.837,198.458C248.7,201.137 250.413,205.137 250.001,209.791C249.114,219.811 239.438,227.922 229.363,225.761C220.021,223.756 213.049,212.099 217.717,203.105C221.56,195.703 236.416,190.751 243.283,196.588C243.452,196.683 243.619,196.781 243.783,196.884ZM378.115,672.899C378.003,672.698 377.885,672.497 377.76,672.295C375.613,668.82 372.157,666.998 368.577,667.198C363.536,668.709 358.21,670.75 356.823,676.466C354.999,683.982 361.614,688.096 368.21,688.253C376.594,688.453 381.958,681.818 378.802,674.307C378.386,674.048 378.159,673.477 378.115,672.899ZM658.742,573.53C664.276,572.545 670.496,575.856 671.968,581.827C673.698,588.845 668.123,597.741 661.352,599.544C652.149,601.994 647.509,596.386 645.621,588.108C643.975,580.892 650.921,572.193 658.742,573.53ZM658.615,575.718C653.082,578 646.993,579.76 647.403,587.308C647.747,593.633 652.656,598.391 658.979,597.76C666.376,597.022 671.224,590.434 669.916,583.218C668.852,577.351 663.71,574.885 658.615,575.718ZM809.901,561.817L809.893,561.818C805.412,561.994 801.646,565.682 803.793,570.337C805.495,574.029 809.141,575.613 813.031,574.742C818.009,573.628 821.401,566.549 815.933,563.383C814.214,562.387 812.004,561.796 809.901,561.817ZM112.792,436.537C109.205,436.7 105.359,438.322 102.837,440.149C98.929,442.98 97.484,446.897 98.88,451.368C99.92,454.698 102.389,456.261 105.512,457.592C112.505,460.573 120.216,456.767 122.351,449.402C123.226,446.388 122.854,443.763 121.682,441.683C121.467,441.818 121.217,441.745 121.018,441.272C120.767,440.675 120.472,440.143 120.139,439.67C118.273,437.823 115.624,436.709 112.792,436.537ZM767.005,139.085C765.829,137.426 765.022,135.487 764.729,133.325C763.578,124.847 768.43,115.278 777.573,113.763C777.723,113.738 777.856,113.762 777.972,113.823C785.663,112.704 792.768,115.935 794.597,124.394C796.473,133.064 793.663,141.784 784.555,144.687C778.456,146.631 771.615,144.594 767.738,140.029C767.7,140.275 767.6,140.497 767.429,140.604C751.197,150.747 735.015,160.739 722.347,175.34C715.947,182.718 710.225,190.66 703.659,197.898C697.24,204.972 690.125,211.358 682.937,217.633C659.174,238.379 633.388,260.677 624.05,292.025C619.542,307.157 619.091,324.06 625.161,338.834C631.072,353.223 643.012,363.426 656.648,370.303C669.856,376.965 684.238,380.997 698.38,385.136C715.842,390.246 733.269,394.407 751.494,395.415C768.685,396.366 784.754,397.496 801.042,403.576C816.527,409.357 831.53,416.441 846.756,422.855C846.788,422.868 846.82,422.884 846.85,422.901C848.775,419.645 852.12,417.627 856.757,418.738L856.765,418.74C862.69,418.375 867.97,421.94 868.598,428.59C869.275,435.779 863.177,441.456 856.327,442.182C846.671,443.206 843.401,433.204 845.577,425.862L846.245,426.146C827.768,418.309 809.437,408.779 790.085,403.279C769.854,397.53 748.271,400.192 727.675,396.221C710.447,392.899 693.341,387.723 676.725,382.112C662.847,377.425 648.839,371.408 637.939,361.361C616.359,341.467 614.437,309.361 624.998,283.319C637.64,252.143 664.833,231.37 689.061,209.572C695.922,203.4 702.393,196.897 708.267,189.773C714.089,182.711 719.516,175.302 725.855,168.68C737.623,156.385 752.341,147.469 767.005,139.085ZM854.596,421.781C850.924,422.955 847.714,424.805 847.098,429.216C846.353,434.554 850.2,439.062 855.526,438.882C861.217,438.689 868.104,434.432 866.583,427.759C865.261,421.958 859.507,420.846 854.596,421.781ZM396.423,410.986C401.704,411.398 406.909,415.876 406.432,421.525C405.704,430.135 396.849,434.647 389.093,433.246C382.033,431.971 379.467,422.543 382.754,416.738C385.234,412.358 391.639,409.525 396.423,410.986ZM395.318,413.39C391.823,413.459 387.87,415.602 385.856,417.691C380.683,423.058 384.751,430.691 391.669,430.792C395.923,430.854 399.133,429.915 401.893,426.565C405.636,422.022 404.254,417.82 401.04,415.43C400.954,415.781 400.69,416.074 400.412,415.696C399.885,414.974 399.251,414.444 398.544,414.075C397.523,413.689 396.427,413.452 395.318,413.39ZM655.601,305.501C658.516,307.09 660.746,309.99 661.382,313.684C662.738,321.572 656.782,326.913 649.206,326.825C647.427,326.804 646.821,326.153 645.398,325.211C643.796,324.149 641.754,323.497 640.421,322.053C638.167,319.611 638.652,315.763 639.24,312.772C640.516,306.273 649.465,300.863 655.391,305.257C655.473,305.317 655.543,305.401 655.601,305.501ZM655.335,307.959C655.168,308.082 654.96,308.099 654.716,307.952C650.498,305.401 642.5,308.937 641.428,313.628C640.424,318.021 644.986,323.382 649.658,323.586C656.376,323.88 661.79,318.403 658.598,311.663C657.823,310.027 656.685,308.803 655.335,307.959ZM243.693,199.686C243.137,199.257 242.541,198.876 241.911,198.548C238.316,197.219 234.623,197.251 231.015,198.203L231.009,198.205C230.948,198.231 230.891,198.245 230.837,198.25C228.459,198.897 226.119,199.94 223.868,201.252C214.3,206.829 219.554,219.487 228.404,222.304C235.948,224.706 244.102,220.471 247.055,213.253C249.233,207.929 247.63,203.088 244.239,200.133C244.035,200.084 243.848,199.919 243.693,199.686ZM175.788,14.794C175.698,14.544 175.618,14.289 175.552,14.031C175.447,13.626 175.373,13.212 175.334,12.794C175.316,12.612 175.305,12.429 175.301,12.246C175.296,12.044 175.298,11.841 175.302,11.639C175.31,11.222 175.33,10.804 175.364,10.388C175.485,8.88 175.777,7.381 176.269,5.948C176.636,4.882 177.116,3.852 177.722,2.9C178.259,2.058 178.895,1.278 179.631,0.602C179.8,0.446 179.974,0.296 180.154,0.152C180.198,0.116 180.243,0.081 180.289,0.045C180.302,0.035 180.315,0.025 180.328,0.015C180.334,0.01 180.339,0 180.347,0C186.078,-0.005 191.808,-0.006 197.538,0C197.55,0 197.558,0.012 197.568,0.018C197.588,0.031 197.608,0.043 197.628,0.055C197.707,0.104 197.786,0.154 197.865,0.205C198.168,0.401 198.464,0.608 198.752,0.826C199.364,1.29 199.938,1.804 200.462,2.364C200.998,2.937 201.482,3.558 201.904,4.218C202.303,4.843 202.646,5.504 202.927,6.189C203.104,6.622 203.259,7.064 203.381,7.515C203.507,7.979 203.601,8.451 203.662,8.928C203.699,9.207 203.724,9.488 203.739,9.769C203.832,11.555 203.497,13.35 202.851,15.013C202.589,15.687 202.275,16.342 201.916,16.97C201.657,17.424 201.373,17.865 201.067,18.289C200.83,18.62 200.578,18.94 200.314,19.25C200.107,19.493 199.892,19.73 199.669,19.959C198.369,21.297 196.804,22.393 195.065,23.077C194.819,23.174 194.571,23.262 194.319,23.342C193.742,23.524 193.151,23.661 192.551,23.745C191.768,23.855 190.974,23.877 190.185,23.838C189.218,23.789 188.256,23.647 187.313,23.433C186.275,23.198 185.257,22.876 184.27,22.477C183.272,22.074 182.305,21.593 181.385,21.032C180.681,20.602 180.005,20.126 179.369,19.599C178.691,19.036 178.06,18.416 177.5,17.735L177.625,17.62C150.109,41.07 124.613,66.699 97.369,90.419C84.658,101.486 71.188,109.964 56.534,118.147C41.387,126.605 30.759,140.314 17.968,151.685C20.966,158.317 17.119,166.263 9.94,167.981C6.084,168.903 2.477,167.667 0,165.21L0,161.668C1.416,163.74 3.813,165.145 6.826,165.182C12.32,165.251 18.317,160.668 16.813,154.625C16.678,154.082 16.494,153.569 16.268,153.086C15.735,153.244 15.448,152.448 15.474,151.731C14.401,150.229 12.876,149.079 11.173,148.24C10.713,148.012 10.009,147.725 9.217,147.484C8.09,147.44 6.959,147.427 5.876,147.592C3.231,147.996 1.276,149.94 0,152.191L0,148.516C0.268,148.209 0.546,147.909 0.842,147.627C1.99,146.528 3.214,145.927 4.501,145.616C6.087,144.585 9.084,145.137 10.755,145.519C11.043,145.542 11.334,145.564 11.626,145.585C11.861,145.602 12.032,145.755 12.147,145.965C14.011,146.711 15.617,148.035 16.796,149.662C22.549,143.174 28.797,137.07 34.964,130.978C40.43,125.578 46.123,120.549 52.731,116.579C60.764,111.752 69.204,107.825 76.949,102.494C83.66,97.875 89.988,92.73 96.108,87.359C123.119,63.656 148.346,38.051 175.791,14.802L175.788,14.794ZM1000,161.667C998.424,159.359 998.066,156.219 999.494,153.171C999.648,152.84 999.817,152.512 1000,152.19L1000,148.516C997.941,150.881 996.702,153.96 996.687,157.112C996.672,160.31 997.951,163.176 1000,165.209L1000,161.667ZM776.763,116.971C770.654,119.484 766.324,125.779 766.756,132.336C767.093,137.454 769.399,139.767 773.988,141.388C777.54,142.643 781.1,143.252 784.729,141.986C792.667,139.216 795.417,130.223 792.33,122.774C789.621,116.24 782.761,115.764 776.763,116.971ZM462.171,107.248C467.989,106.739 473.293,110.923 473.752,117.67C474.318,125.977 466.545,132.097 458.642,131.432C451.426,130.825 446.209,122.646 449.224,115.73C450.613,112.542 453.769,109.007 457.069,107.772C458.918,107.08 460.579,106.964 462.171,107.248ZM464.736,109.926C462.757,109.461 460.644,109.47 458.789,109.954C456.76,110.868 455.167,112.727 453.766,114.42C451.72,116.892 450.127,119.093 450.873,122.584C451.659,126.265 454.531,128.28 458.021,128.738C464.958,129.648 472.707,124.714 471.826,116.973C471.504,114.146 469.753,112.129 467.451,110.925C467.431,110.92 467.41,110.914 467.389,110.905C466.532,110.563 465.643,110.208 464.736,109.926ZM179.467,15.441C180.02,16.015 180.639,16.522 181.296,16.974C181.986,17.45 182.718,17.866 183.473,18.232C184.083,18.528 184.709,18.791 185.347,19.022C185.978,19.25 186.621,19.448 187.273,19.612C187.963,19.785 188.664,19.92 189.371,20.003C189.943,20.071 190.521,20.104 191.096,20.081C191.366,20.07 191.636,20.046 191.903,20.011C192.734,19.902 193.548,19.681 194.323,19.364C194.979,19.094 195.607,18.757 196.196,18.361C196.624,18.074 197.032,17.756 197.416,17.412C197.715,17.144 198,16.86 198.268,16.562C198.469,16.338 198.662,16.106 198.845,15.866C198.993,15.673 199.134,15.474 199.269,15.27C200.059,14.077 200.619,12.721 200.829,11.302C200.857,11.109 200.879,10.916 200.894,10.723C200.917,10.436 200.924,10.148 200.916,9.861C200.905,9.445 200.86,9.03 200.782,8.621C200.67,8.034 200.488,7.46 200.242,6.916C199.894,6.147 199.419,5.44 198.855,4.812C198.568,4.493 198.26,4.194 197.931,3.918C197.167,3.273 196.305,2.75 195.4,2.329C194.559,1.938 193.68,1.634 192.782,1.404C191.748,1.139 190.688,0.972 189.623,0.898C188.855,0.844 188.084,0.839 187.316,0.885C187.08,0.9 186.844,0.919 186.608,0.943C186.533,0.951 186.458,0.959 186.383,0.968C186.358,0.971 186.333,0.974 186.308,0.977C186.3,0.978 186.292,0.978 186.283,0.98C186.273,0.982 186.263,0.986 186.254,0.989C186.224,0.997 186.194,1.005 186.164,1.014C186.075,1.039 185.985,1.065 185.896,1.092C185.619,1.174 185.344,1.262 185.07,1.355C184.158,1.668 183.266,2.046 182.42,2.51C181.3,3.125 180.255,3.898 179.417,4.867C179.287,5.018 179.162,5.173 179.043,5.332C178.884,5.545 178.735,5.765 178.598,5.992C178.364,6.38 178.164,6.788 178.002,7.21C177.844,7.622 177.722,8.048 177.635,8.48C177.471,9.291 177.432,10.125 177.489,10.949C177.506,11.192 177.531,11.434 177.563,11.676C177.589,11.872 177.618,12.069 177.659,12.262C177.713,12.516 177.787,12.766 177.877,13.009C178.046,13.463 178.274,13.893 178.541,14.296C178.688,14.516 178.846,14.727 179.013,14.931L179.028,14.948C179.187,15.099 179.33,15.261 179.454,15.427L179.467,15.441ZM667.076,0C666.539,3.274 664.102,6.527 660.906,7.693C656.581,9.272 649.222,5.854 648.39,1.007C648.335,0.685 648.312,0.346 648.308,0L646.296,0C646.274,0.647 646.284,1.28 646.362,1.862C647.246,8.448 656.242,12.628 662.098,10.336C666.01,8.806 669.061,4.417 669.628,0L667.076,0ZM927.922,0C930.881,1.993 934.425,3.151 937.958,3.088C941.523,3.025 944.811,1.876 947.561,0L927.922,0Z" style="fill-rule:nonzero;"/>
</svg>
