<?xml version="1.0" encoding="UTF-8" standalone="no"?>
<!DOCTYPE svg PUBLIC "-//W3C//DTD SVG 1.1//EN" "http://www.w3.org/Graphics/SVG/1.1/DTD/svg11.dtd">
<svg width="100%" height="100%" viewBox="0 0 1000 1000" version="1.1" xmlns="http://www.w3.org/2000/svg" xmlns:xlink="http://www.w3.org/1999/xlink" xml:space="preserve" xmlns:serif="http://www.serif.com/" style="fill-rule:evenodd;clip-rule:evenodd;stroke-linejoin:round;stroke-miterlimit:2;">
    <path d="M452.186,1000C436.356,977.524 420.46,955.077 407.637,930.704C407.241,929.952 407.472,928.666 407.982,927.864C408.107,927.462 408.307,927.111 408.594,926.853C417.018,919.279 425.295,911.54 433.713,903.95C440.181,898.119 448.463,890.397 456.932,887.821C465.21,885.303 473.796,882.851 482.351,881.438C491.832,879.873 501.582,879.417 511.134,878.402C529.872,876.414 549.646,876.685 568.194,880.209C577.763,882.027 586.976,885.535 596.465,887.754C597.145,887.913 597.832,888.075 598.521,888.247C598.86,888.181 599.199,888.116 599.538,888.051C600.149,887.934 600.607,888.302 600.897,888.885C603.357,889.605 605.763,890.531 607.868,891.937C611.354,894.267 614.049,897.655 617.19,900.4C628.618,910.384 643.45,916.18 652.394,928.895C653.639,929.405 654.428,932.287 653.5,933.71C639.022,955.906 624.316,977.963 609.578,1000L603.44,1000C618.438,977.507 633.451,955.026 648.686,932.706C628.569,937.324 608.537,942.082 587.941,944.048C587.672,944.074 587.402,944.099 587.134,944.123C587.088,944.45 587.035,944.781 586.974,945.117C585.423,953.662 581.002,961.993 578.257,970.239C575.005,980.009 571.818,989.794 568.463,999.53L568.301,1000L564.559,1000C569.709,984.405 575.715,969.087 580.374,953.347C581.193,950.577 582.453,947.497 583.117,944.422C564.972,945.517 546.993,943.284 528.822,944.107C510.834,944.922 493.025,946.01 475.111,944.639C475.29,947.881 477.141,951.009 478.241,954.351C483.284,969.679 488.989,984.773 494.334,1000L489.784,1000C486.825,991.137 484.071,982.212 481.061,973.365C477.987,964.333 473.488,955.44 471.328,946.146C471.183,945.521 471.089,944.901 471.041,944.284C470.312,944.213 469.583,944.137 468.854,944.056C450.022,941.979 432.21,935.311 413.399,933.166C422.573,947.422 431.451,961.862 441.133,975.795C446.766,983.902 452.502,991.937 458.199,1000L452.186,1000ZM89.74,758.689C89.024,757.579 88.926,755.29 89.781,754.369C96.794,746.816 104.399,739.899 112.233,733.207C119.392,727.089 127.093,720.271 135.645,716.146C139.195,714.434 142.743,713.972 146.638,713.84C151.434,713.678 155.964,712.887 160.584,711.566C168.447,709.32 176.097,705.698 184.309,704.933C193.515,704.074 202.839,704.471 212.055,704.537C221.685,704.605 231.294,704.184 240.901,705.143C249.816,706.031 258.37,708.579 267.087,710.474C275.4,712.281 284.277,712.602 291.523,717.626C298.904,722.744 305.668,729.063 312.661,734.704C320.159,740.752 328.109,746.713 334.588,753.875C335.192,754.542 335.433,756.005 335.221,757.129C335.377,758.248 335.197,759.44 334.464,760.325C328.17,767.929 323.142,776.924 317.999,785.335C313.193,793.194 307.842,800.735 302.882,808.506C292.898,824.15 283.377,840.08 273.342,855.682C263.238,871.392 252.956,886.974 243.056,902.831C233.274,918.5 223.85,934.384 213.817,949.898C212.669,951.673 211.071,950.815 210.289,949.295C176.022,882.759 135.186,819.577 90.23,759.797C89.995,759.484 89.835,759.104 89.74,758.689ZM561.001,901.027C550.326,902.202 539.567,902.575 528.833,902.122C518.01,901.665 507.13,902.93 496.306,902.539C491.97,911.289 487.28,919.854 482.615,928.433C480.644,932.058 478.429,935.626 476.538,939.305C483.528,939.951 490.452,940.072 497.586,940.234C507.974,940.471 518.308,938.695 528.679,938.249C546.957,937.464 565.069,939.549 583.328,938.284C582.417,933.921 578.841,929.622 576.503,925.979C571.223,917.752 566.068,909.475 561.038,901.092C561.025,901.071 561.013,901.049 561.001,901.027ZM455.14,893.423C453.765,894.12 452.401,894.866 451.048,895.662C437.402,903.687 426.064,916.166 414.931,927.567C422.648,927.697 430.411,929.747 437.794,931.629C448.102,934.257 458.19,936.682 468.714,938.339C469.719,938.498 470.721,938.641 471.721,938.771C473.13,934.13 476.311,929.75 478.553,925.652C482.836,917.819 487.077,909.959 491.581,902.252C486.089,901.754 480.726,900.218 475.369,898.998C468.943,897.536 462.132,896.519 455.965,894.177C455.633,894.05 455.356,893.779 455.14,893.423ZM265.884,773.054C257.36,773.396 248.721,772.459 240.22,771.971C230.464,771.41 220.547,771.486 210.79,771.986C194.277,772.833 177.624,774.129 161.064,773.375C160.986,777.423 162.304,781.292 163.572,785.412C169.077,803.3 177.1,819.997 183.956,837.355C190.52,853.973 195.11,871.081 199.842,888.275C204.4,904.837 209.118,921.501 213.057,938.243C216.672,931.127 219.148,922.988 221.697,915.654C224.564,907.4 227.147,899.051 229.749,890.711C235.429,872.508 241.049,854.286 246.707,836.076C252.372,817.847 257.992,799.616 263.577,781.364C264.43,778.576 265.516,775.818 265.884,773.054ZM600.654,892.649C600.5,892.82 600.316,892.946 600.102,893.011C588.778,896.445 577.194,898.947 565.496,900.485C570.506,908.036 575.363,915.669 580.215,923.328C583.485,928.49 586.32,932.749 587.13,937.97C587.351,937.949 587.57,937.927 587.79,937.905C607.232,935.936 626.466,931.811 645.506,927.464C640.75,923.227 635.372,919.798 629.985,916.283C622.979,911.711 616.764,906.707 611.038,900.611C607.99,897.367 604.83,894.219 600.654,892.649ZM96.963,759.842C137.975,814.143 174.102,871.733 206.466,931.547C202.69,916.792 199.399,901.886 195.498,887.18C190.453,868.157 184.013,849.203 176.043,831.208C171.987,822.05 167.921,812.924 164.5,803.504C161.329,794.771 157.405,785.149 156.411,775.856C156.311,774.923 156.276,774.004 156.298,773.098C154.608,772.979 152.917,772.835 151.227,772.664C132.447,770.77 115.348,763.231 96.963,759.842ZM327.652,761.783C318.329,763.607 308.994,765.367 299.683,767.241C290.08,769.175 280.569,771.711 270.796,772.705C270.741,773.321 270.647,773.94 270.51,774.564C268.512,783.657 264.969,792.675 262.118,801.542C258.898,811.565 255.908,821.672 252.824,831.74C246.849,851.249 240.788,870.732 234.811,890.242C231.861,899.871 228.973,909.526 225.715,919.057C225.116,920.808 224.472,922.545 223.8,924.274C229.649,915.242 235.56,906.251 241.356,897.185C251.314,881.609 260.841,865.798 270.582,850.1C280.317,834.412 290.525,818.978 300.466,803.411C305.628,795.327 310.507,787.048 315.949,779.153C319.882,773.449 323.992,767.725 327.652,761.783ZM691.987,715.353C690.704,714.613 690.291,711.152 691.469,709.901C704.526,696.036 719.219,682.302 736.358,673.613C752.192,665.583 769.474,662.08 787.111,660.99C805.323,659.864 823.991,657.397 842.131,660.582C851.977,662.312 861.766,664.643 871.526,666.802C879.93,668.662 888.304,670.782 895.708,675.343C903.185,679.95 909.686,686.108 916.337,691.795C923.531,697.946 931.318,703.757 937.968,710.49C938.858,711.392 938.87,713.917 938,714.749C937.939,715.039 937.831,715.308 937.669,715.533C893.897,776.357 855.696,841.25 815.146,904.231C814.061,905.917 812.555,905.087 811.812,903.662C777.456,837.698 736.533,774.854 691.987,715.353ZM589.374,890.143C588.531,889.972 587.692,889.788 586.859,889.583C577.451,887.263 568.196,884.484 558.583,883.081C540.608,880.458 521.816,881.877 503.752,883.14C494.768,883.768 485.86,885.485 476.942,886.674C472.334,887.288 467.946,888.323 463.713,889.785C473.468,891.478 483.162,894.596 492.924,895.976C499.074,896.844 505.019,896.33 511.188,896.046C517.102,895.774 522.816,896.364 528.7,896.702C540.82,897.402 552.447,897.325 564.436,895.283C572.801,893.858 581.076,891.939 589.374,890.143ZM697.034,715.689C739.381,771.432 776.706,830.412 810.606,891.636C804.866,875.199 799.364,858.672 794.969,841.82C789.97,822.654 781.568,804.455 775.267,785.677C772.194,776.516 769.361,767.277 766.256,758.127C764.608,753.27 763.068,748.384 761.552,743.483C760.289,739.401 758.403,735.053 758.089,730.752C758.009,729.664 758.072,728.575 758.247,727.49C737.523,725.517 716.846,721.475 697.034,715.689ZM762.222,727.843C761.758,731.658 763.338,735.367 764.492,739.262C769.749,757.021 774.865,774.764 781.307,792.144C787.244,808.164 794.264,823.633 798.509,840.23C802.845,857.181 808.649,873.436 814.887,889.719C826.509,856.448 838.71,823.353 849.965,789.957C855.983,772.095 860.491,753.812 865.548,735.672C866.17,733.44 867.169,730.9 867.858,728.337C864.386,728.712 860.902,729.014 857.368,729.15C849.264,729.463 841.164,729.358 833.058,729.253C817.016,729.044 800.958,728.964 784.915,728.86C777.379,728.811 769.801,728.467 762.222,727.843ZM932.019,716.892C923.924,718.837 915.654,720.06 907.536,721.91C898.951,723.866 890.306,725.657 881.556,726.685C878.389,727.057 875.251,727.466 872.114,727.847C869.9,737.085 866.721,746.239 863.869,755.281C860.859,764.824 858.359,774.509 855.458,784.085C849.455,803.897 842.13,823.335 835.277,842.864C829.962,858.011 824.689,873.179 819.347,888.321C856.227,830.709 893.952,773.7 932.019,716.892ZM244.684,728.105C233.846,728.688 222.988,728.987 212.14,729.384C201.885,729.759 190.826,730.965 180.423,729.956C176.823,738.674 172.263,747.048 168.118,755.516C166.421,758.985 164.372,762.408 162.848,765.99C178.758,766.736 194.7,765.969 210.635,765.694C220.463,765.524 230.233,765.232 240.064,765.598C244.946,765.779 249.778,766.221 254.636,766.724C257.052,766.975 259.351,767.439 261.777,767.314C262.893,767.257 264.026,767.115 265.157,766.945C265.068,766.736 264.969,766.525 264.863,766.315C262.784,762.209 260.54,758.178 258.382,754.114C253.785,745.46 249.153,736.825 244.684,728.105ZM284.443,719.335C284.253,719.942 283.909,720.419 283.402,720.573C272.42,723.902 261.271,726.888 249.829,727.791C253.979,735.373 258.025,743.013 262.099,750.637C264.707,755.518 268.449,760.689 270.065,766.184C289.513,763.412 308.846,758.83 328.108,754.922C321.218,749.816 314.939,743.625 308.623,737.972C301.757,731.826 294.688,723.484 286.022,719.938C285.501,719.725 284.974,719.525 284.443,719.335ZM141.394,720.053C137.133,721.035 133.434,723.52 130.009,726.187C118.524,735.131 107.496,744.48 96.717,754.219C104.915,754.631 112.621,757.274 120.647,759.177C130.774,761.578 140.648,764.069 151.042,765.127C153.243,765.351 155.444,765.537 157.644,765.689C158.937,761.704 160.968,757.9 162.882,754.106C167.042,745.862 171.039,737.341 175.687,729.324C175.55,729.3 175.415,729.276 175.28,729.252C163.96,727.205 152.596,723.307 141.546,720.107C141.494,720.092 141.443,720.074 141.394,720.053ZM275.987,716.782C275.035,716.495 274.089,716.191 273.157,715.856C268.668,714.244 263.919,713.297 259.217,712.571C250.037,711.154 240.712,710.403 231.44,709.883C222.369,709.374 213.53,709.448 204.466,709.529C195.391,709.611 186.818,709.962 177.951,712.224C170.576,714.105 163.647,717.557 156.131,718.89C163.1,720.887 170.089,722.854 177.158,724.156C183.207,725.269 189.187,724.596 195.277,724.285C201.177,723.983 207.076,723.716 212.98,723.501C224.895,723.064 236.937,723.147 248.824,722.285C257.935,721.624 266.975,718.864 275.987,716.782ZM846.581,684.623C835.612,685.793 824.796,686.981 813.741,685.649C807.606,684.911 801.486,684.565 795.306,684.575C791.241,684.581 787.128,685.091 783.046,685.226C783.06,685.661 782.998,686.071 782.84,686.388C778.493,695.098 774.087,703.762 769.559,712.38C767.757,715.81 765.866,719.211 764.11,722.668C770.351,723.043 776.635,722.985 782.867,723.135C793.007,723.378 803.116,723.345 813.262,723.372C831.748,723.422 850.136,723.407 868.593,722.612C868.533,721.762 868.371,720.935 868.079,720.143C866.637,716.238 863.438,712.245 861.257,708.664C856.372,700.646 851.453,692.651 846.581,684.623ZM887.167,676.566C886.995,676.73 886.791,676.853 886.554,676.919C874.882,680.198 863.19,682.898 851.115,684.148C855.831,691.385 860.365,698.715 864.845,706.106C868.033,711.366 872.359,716.42 872.771,722.419C883.074,721.905 893.175,718.924 903.244,716.773C912.51,714.792 921.766,712.321 931.104,710.626C924.725,705.519 918.709,699.777 912.539,694.524C905.118,688.208 897.77,681.129 888.719,677.204C888.206,676.982 887.689,676.77 887.167,676.566ZM741.386,677.249C738.289,678.636 735.248,680.208 732.278,681.996C719.41,689.743 708.852,700.397 698.067,710.714C706.406,713.141 714.726,715.498 723.295,717.077C733.637,718.983 744.115,719.983 754.486,721.652C756.255,721.937 758.031,722.158 759.812,722.333C761.589,718.153 764.334,714.128 766.195,710.53C770.582,702.049 775.049,693.623 779.601,685.232C778.852,685.205 778.105,685.157 777.361,685.082C771.532,684.497 766.271,682.987 760.61,681.652C754.528,680.218 748.314,679.675 742.261,678.026C741.888,677.925 741.597,677.638 741.386,677.249ZM382.309,520.505C380.529,521.123 379.921,517.148 381.114,515.899C388.559,508.111 396.892,501.255 405.027,494.195C412.058,488.093 419.555,482.24 427.646,477.589C434.903,473.416 443.558,471.714 451.758,470.296C456.612,469.457 461.528,469.07 466.358,468.066C470.376,467.231 473.755,465.805 477.865,466.498C482.982,467.361 489.057,465.585 494.444,465.451C498.832,465.343 503.222,465.244 507.612,465.178C517.073,465.033 526.662,465.018 536.065,466.206C544.85,467.315 553.537,469.612 562.191,471.445C567.177,472.501 571.878,473.935 576.439,475.788C576.955,475.735 577.37,475.94 577.679,476.303C580.837,477.646 583.933,479.192 587.014,480.956C594.105,485.015 600.08,490.551 606.117,495.997C612.883,502.101 620.059,508.174 625.82,515.263C626.592,516.212 626.463,518.597 625.585,519.573C625.62,520.325 625.472,521.059 625.073,521.599C614.097,536.47 604.207,552.117 593.724,567.33C583.497,582.172 573.36,597.193 563.827,612.491C553.995,628.268 544.641,644.404 535.211,660.425C525.672,676.634 515.354,692.417 505.942,708.69C505.374,709.669 504.039,709.77 503.447,708.751L501.833,705.975C501.394,705.648 501.017,705.059 500.771,704.149C482.814,673.276 464.671,642.437 445.331,612.378C425.249,581.167 403.997,550.623 382.309,520.505ZM620.243,519.713C610.874,522.353 601.297,524.333 591.904,526.913C582.847,529.402 573.516,530.899 564.174,531.823C564.074,537.033 560.844,542.038 558.765,546.639C555.58,553.687 552.493,560.699 550.092,568.056C545.186,583.086 540.359,598.143 535.992,613.339C531.568,628.733 526.6,643.875 521.504,659.053C516.971,672.554 511.491,685.737 506.891,699.192C515.512,684.971 523.612,670.399 532.292,656.208C541.948,640.427 551.605,624.663 561.381,608.957C571.022,593.47 580.567,577.95 590.46,562.616C599.901,547.983 610.316,534.014 620.243,519.713ZM559.601,532.293C555.645,532.735 551.694,533.22 547.719,533.22C542.518,533.221 537.282,532.76 532.075,532.568C521.951,532.194 511.949,531.833 501.806,531.994C492.192,532.147 482.722,533.214 473.143,533.833C465.445,534.331 457.455,533.693 449.658,532.926C449.677,533.398 449.74,533.875 449.854,534.356C452.086,543.77 455.51,553.451 458.905,562.493C462.288,571.504 465.244,580.678 468.804,589.623C475.7,606.948 483.2,623.716 488.334,641.699C493.515,659.844 497.923,678.448 503.998,696.338C511.341,680.022 516.704,662.564 522.091,645.547C527.628,628.056 533.222,610.61 538.332,592.989C543.329,575.757 548.626,558.293 555.873,541.853C556.823,539.697 558.124,537.575 558.9,535.356C559.3,534.213 559.527,533.215 559.601,532.293ZM388.667,521.775C409.289,550.063 428.812,579.024 447.76,608.472C465.149,635.499 482.141,662.815 497.981,690.774C494.39,674.725 489.913,658.707 485.437,642.999C482.56,632.908 478.213,623.787 474.114,614.179C470.08,604.723 466.546,595.058 462.783,585.494C459.021,575.932 455.827,566.233 452.446,556.538C450.887,552.068 449.362,547.59 447.988,543.058C447.01,539.835 445.281,536.02 445.397,532.498C444.643,532.421 443.892,532.346 443.144,532.271C433.512,531.314 424.085,528.641 414.694,526.427C406.045,524.39 397.387,523.144 388.667,521.775ZM877.596,673.724C873.075,672.688 868.468,671.92 864.027,670.958C854.407,668.877 844.863,666.49 835.041,665.537C825.718,664.631 816.331,664.986 806.993,665.434C798.299,665.852 789.666,666.148 781.027,667.27C770.132,668.686 759.396,670.623 749.173,674.171C758.822,676.066 768.355,678.822 778.167,679.664C784.306,680.19 789.983,680.421 796.139,679.924C801.756,679.471 807.135,679.407 812.734,680.102C818.613,680.833 824.427,681.605 830.373,681.445C836.546,681.278 842.792,680.002 848.866,678.945C858.427,677.281 868.171,676.063 877.596,673.724ZM0,379.728C1.723,379.388 3.453,379.072 5.193,378.788C23.336,375.827 42.22,375.309 60.504,377.473C69.223,378.505 77.885,380.154 86.375,382.385C92.251,383.929 98.476,385.525 104.275,387.855C105.164,387.593 105.844,388 106.287,388.702C108.177,389.536 110.01,390.461 111.759,391.5C119.262,395.959 125.761,402.614 132.549,408.081C140.018,414.096 147.094,420.62 154.299,426.949C155.13,427.679 155.231,429.391 154.829,430.588C155.02,431.524 154.928,432.54 154.411,433.213C142.891,448.215 132.483,464.046 122.463,480.078C117.795,487.547 113.201,495.065 108.498,502.51C103.422,510.543 99.318,519.333 94.49,527.562C85.189,543.414 75.727,559.208 65.453,574.454C60.147,582.326 54.293,589.733 48.729,597.412C43.119,605.155 36.974,613.475 33.469,622.41C32.699,624.375 30.945,624.264 30.045,622.494C20.595,603.907 10.572,585.697 0,567.804L0,558.568C9.826,574.803 19.187,591.32 27.817,608.192C22.948,590.484 17.746,572.832 12.053,555.39C7.949,542.82 4.243,530.058 0,517.503L0,502.848L0.097,503.114C6.642,521.299 11.882,540.026 17.508,558.511C22.507,574.937 27.817,591.214 32.409,607.75C38.52,592.45 44.34,577.194 49.143,561.346C54.844,542.538 58.751,523.308 66.921,505.39C74.637,488.464 77.318,469.967 83.173,452.408C83.951,450.074 85.456,447.361 86.18,444.695C77.732,444.944 69.079,444.042 60.709,443.798C50.815,443.509 40.916,443.084 31.018,443.239C21.135,443.394 11.247,443.376 1.378,444.001C0.918,444.03 0.458,444.061 0,444.093L0,438.754C0.415,438.72 0.831,438.686 1.247,438.652C11.436,437.815 21.656,437.484 31.874,437.823C42.102,438.161 52.334,438.408 62.563,438.732C70.263,438.976 78.195,439.474 85.953,438.976C84.311,434.523 81.2,430.128 78.924,426.061C74.397,417.968 69.478,410.078 64.475,402.27C59.944,402.807 55.428,403.393 50.85,403.597C44.576,403.877 38.342,403.482 32.072,403.34C21.539,403.1 11.173,403.798 0.696,403.261C0.492,404.017 0.259,404.754 0,405.475L0,397.349C10.559,398.47 21.335,396.94 31.928,397.472C53.942,398.576 76.094,395.579 97.403,389.817C66.792,379.542 32.371,378.363 0.969,384.035C0.646,384.093 0.323,384.151 0,384.208L0,379.728ZM148.883,432.605C139.04,434.784 129.141,436.632 119.286,438.75C110.076,440.729 100.881,443.452 91.476,444.369C91.26,444.39 91.044,444.41 90.829,444.429C90.428,445.873 89.767,447.25 89.142,448.673C87.597,452.192 86.243,455.777 85.113,459.45C82.836,466.85 81.098,474.401 79.137,481.886C77.182,489.348 75.083,496.814 72.166,503.965C69.183,511.282 65.532,518.218 63.31,525.836C55.872,551.322 48.775,576.956 39.511,601.854C41.091,599.318 42.764,596.818 44.566,594.344C50.148,586.68 55.776,579.037 61.247,571.294C71.992,556.083 81.722,540.22 91.167,524.18C93.423,520.351 95.665,516.514 97.904,512.675C100.259,508.639 103.185,505.031 105.457,500.949C110.113,492.582 114.699,484.204 119.633,475.99C128.63,461.013 138.254,446.466 148.883,432.605ZM1000,379.728L1000,384.208C991.642,385.69 983.211,386.841 974.913,388.637C972.483,389.164 970.022,389.601 967.695,390.469C977.469,393.039 987.23,395.455 997.259,396.995C998.171,397.135 999.085,397.252 1000,397.349L1000,405.475C997.827,411.544 993.861,416.516 990.473,422.09C987.911,426.305 985.771,430.715 983.799,435.233C983.184,436.643 982.529,438.057 981.921,439.486C987.932,439.682 993.881,439.252 1000,438.754L1000,444.093C993.214,444.566 986.639,445.304 979.972,445.176C979.553,447.007 979.374,448.884 979.596,450.826C980.648,460.027 985.83,469.518 989.578,477.891C993.261,486.12 996.932,494.363 1000,502.848L1000,517.503C997.905,511.303 995.678,505.153 993.209,499.101C989.533,490.098 985.452,481.268 981.922,472.204C979.134,465.043 975.096,456.444 975.324,448.632C975.359,447.416 975.491,446.192 975.701,444.966C974.082,444.834 972.454,444.637 970.813,444.361C952.17,441.217 933.209,437.57 914.944,432.616C925.467,446.519 935.276,461.12 945.242,475.401C956.024,490.852 966.708,506.43 977.032,522.197C984.877,534.179 992.572,546.293 1000,558.568L1000,567.804C991.451,553.333 982.544,539.068 973.29,524.976C963.103,509.463 952.644,494.178 941.983,478.998C931.151,463.575 919.655,448.492 909.27,432.775C908.189,431.139 909.186,427.329 910.834,427.789C910.865,427.754 910.896,427.72 910.929,427.687C917.746,420.732 924.99,413.849 932.362,407.484C939.416,401.394 947.159,396.133 954.513,390.43C956.046,389.241 957.688,387.345 959.579,386.745C961.218,386.224 963.326,386.376 965.045,386.316C969.575,386.157 974.04,385.275 978.49,384.388C985.703,382.951 992.796,381.144 1000,379.728ZM536.134,488.479C533.447,488.76 530.787,489.289 528.068,489.313C524.788,489.342 521.571,488.696 518.288,488.85C511.982,489.146 506.117,491.095 499.707,491.03C496.414,490.997 493.078,490.65 489.796,490.359C486.323,490.052 483.355,490.235 479.914,490.284C477.656,490.316 475.369,490.18 473.078,489.989C470.827,497.888 466.795,504.878 462.144,511.615C459.972,514.761 457.752,517.873 455.599,521.033C454.362,522.849 452.774,524.783 451.55,526.835C458.005,527.557 464.4,527.871 471.102,527.605C480.674,527.225 490.095,525.452 499.689,525.24C509.769,525.017 519.914,526.398 529.981,526.832C539.231,527.232 548.816,527.384 558.093,526.542C557.935,526.246 557.766,525.941 557.587,525.626C555.389,521.76 553.044,517.985 550.772,514.163C545.871,505.912 541.115,497.576 536.413,489.21C536.291,488.993 536.199,488.746 536.134,488.479ZM433.174,480.626C429.184,482.471 425.385,484.742 421.991,487.146C410.062,495.598 399.597,506.012 388.492,515.514C396.319,516.856 403.924,518.926 411.787,520.395C421.842,522.275 431.953,523.868 442.048,525.514C443.674,525.779 445.285,526.025 446.887,526.248C449.218,520.27 453.684,514.703 457.127,509.76C461.589,503.352 466.084,496.882 468.93,489.603C467.27,489.443 465.616,489.288 463.979,489.181C453.367,488.482 442.551,486.461 433.414,480.813C433.328,480.76 433.249,480.698 433.174,480.626ZM577.43,481.277C577.17,481.538 576.857,481.723 576.487,481.8C572.958,482.531 569.412,482.744 565.866,483.317C562.895,483.797 560.101,484.855 557.186,485.571C552.076,486.826 546.87,487.622 541.638,488.072C545.568,494.868 549.433,501.697 553.27,508.547C555.481,512.493 557.6,516.489 559.824,520.428C560.847,522.24 562.019,524.076 562.886,526.013C571.782,524.863 580.538,522.868 589.334,521.151C598.701,519.324 607.637,516.499 616.774,513.978C604.401,502.75 594.22,487.896 578.486,481.689C578.135,481.551 577.783,481.414 577.43,481.277ZM566.907,477.651C553.578,473.585 539.576,471.245 525.796,470.753C516.958,470.437 508.103,470.722 499.263,470.841C495.101,470.896 490.765,471.265 486.628,470.787C483.365,470.411 481.29,469.576 477.966,470.583C475.809,471.236 473.725,472.094 471.525,472.664C463.592,474.721 455.456,475.479 447.338,476.41C445.17,476.659 442.987,477.117 440.819,477.743C449.499,481.146 458.728,482.401 468.126,483.078C473.207,483.444 478.229,483.631 483.22,484.581C489.428,485.761 496.237,484.704 502.53,484.924C509.374,485.163 515.943,486.574 522.717,484.958C528.322,483.62 533.993,483.056 539.583,481.753C545.533,480.367 551.903,479.391 557.995,478.959C561.056,478.741 563.99,478.233 566.907,477.651ZM583.855,255.889C582.456,256.413 581.433,252.687 582.677,251.387C586.58,247.311 590.369,243.139 594.172,238.971C597.167,235.688 600.04,231.783 603.777,229.308C608.077,226.461 612.573,224.881 616.436,221.273C619.36,218.541 622.122,215.584 625.584,213.507C632.653,209.265 641.981,209.124 649.929,208.06C659.735,206.747 669.273,204.04 679.198,202.926C688.983,201.828 698.779,201.56 708.577,202.657C713.209,203.176 717.881,204.017 722.555,203.797C726.853,203.595 731.026,202.903 735.351,203.091C744.724,203.499 753.765,205.318 762.952,207.147C767.596,208.072 772.214,209.153 776.842,210.16C780.859,211.034 784.912,211.731 788.411,214.025C796.577,219.382 803.879,226.862 811.225,233.281C817.176,238.481 825.181,243.85 828.459,251.307C829.829,251.09 830.342,254.537 829.74,255.6C825.065,263.832 818.516,271.246 813.245,279.143C808.28,286.581 803.175,293.924 798.224,301.372C787.96,316.809 778.154,332.506 768.533,348.351C748.959,380.589 729.257,412.743 708.874,444.477C707.757,446.216 706.592,445.178 706.085,443.642C705.845,443.478 705.599,443.215 705.351,442.837C694.527,426.314 684.784,408.975 674.293,392.224C665.149,377.626 653.666,364.603 646.122,349.08C629.757,315.406 604.863,286.669 583.855,255.889ZM960.033,394.385C958.724,394.785 957.365,395.021 956.068,395.554C953.99,396.407 952.194,397.96 950.383,399.27C938.499,407.871 926.192,416.455 917.262,428.131C935.853,430.803 954.06,435.64 972.603,438.617C974.148,438.865 975.682,439.055 977.207,439.195C979.088,433.669 982.034,428.257 984.467,423.45C988.048,416.374 994.085,410.435 996.897,403.009C996.364,402.965 995.832,402.917 995.299,402.865C983.416,401.709 971.65,398.023 960.303,394.496C960.209,394.467 960.118,394.429 960.033,394.385ZM106.247,393.125C106.037,393.368 105.774,393.542 105.454,393.616C93.222,396.469 81.395,400.487 68.83,401.783C73.227,407.538 77.226,413.553 80.905,419.816C82.889,423.193 84.77,426.624 86.567,430.104C87.913,432.712 89.755,435.576 90.661,438.539C90.885,438.511 91.107,438.483 91.33,438.453C100.61,437.207 109.954,434.881 119.146,433.048C128.644,431.154 138.081,429.016 147.588,427.16C141.223,421.791 134.865,416.419 128.745,410.773C121.821,404.385 114.93,397.054 106.247,393.125ZM760.97,267.908C743.272,270.426 725.031,270.902 707.238,271.244C697.049,271.441 687.024,270.128 676.888,269.374C669.397,268.817 661.99,269.428 654.55,269.239C654.446,270.679 654.615,272.151 655.083,273.825C655.587,275.633 656.102,277.438 656.606,279.246C661.767,297.744 667.851,315.939 675.007,333.763C681.645,350.298 687.742,366.582 692.253,383.852C696.575,400.394 700.778,416.997 707.291,432.824C717.211,398.553 729.163,364.945 740.441,331.107C746.614,312.583 752.528,293.975 758.644,275.432C759.259,273.568 760.032,271.722 760.532,269.826C760.712,269.147 760.858,268.511 760.97,267.908ZM824.736,254.962C805.966,259.441 786.804,263.491 767.81,266.824C766.672,267.024 765.532,267.213 764.389,267.394C763.662,271.536 762.014,275.686 760.787,279.651C759.221,284.718 757.59,289.765 755.976,294.816C752.85,304.602 749.69,314.377 746.466,324.131C734.53,360.248 721.496,396.073 710.858,432.605C728.717,402.398 747.02,372.447 765.732,342.763C775.753,326.867 785.792,310.954 796.176,295.291C801.097,287.869 806.045,280.451 811.394,273.328C815.838,267.407 819.864,260.664 824.736,254.962ZM588.626,256.388C599.656,269.75 609.625,284.177 619.372,298.442C629.305,312.98 639.609,327.434 647.275,343.327C651.443,351.968 656.032,359.603 662.061,367.084C667.499,373.829 672.082,381.077 676.659,388.419C684.155,400.446 692.093,412.258 699.708,424.24C696.17,413.507 693.355,402.548 690.4,391.603C686.367,376.668 682.102,361.904 676.253,347.561C670.275,332.899 664.702,318.112 659.85,303.036C657.574,295.962 655.439,288.842 653.452,281.681C652.312,277.575 650.789,273.301 650.847,269.069C649.167,268.955 647.486,268.783 645.801,268.532C635.981,267.067 626.402,264.345 616.672,262.426C607.348,260.587 597.814,258.921 588.626,256.388ZM160.859,198.436C163.403,196.099 165.624,193.54 168.236,191.152C172.333,187.407 176.743,183.996 181.04,180.486C189.25,173.78 197.454,166.229 206.748,161.051C213.428,157.329 222.552,157.11 230.001,155.883C239.56,154.307 249.147,152.952 258.726,151.514C268.457,150.053 277.945,151.191 287.716,150.89C297.49,150.588 306.998,150.782 316.615,152.342C325.716,153.819 334.648,155.882 343.642,157.874C346.373,158.479 349.127,158.989 351.799,159.656C352.072,159.634 352.346,159.614 352.621,159.595C353.259,159.553 353.769,159.831 354.148,160.296C358.274,161.531 362.119,163.343 365.273,166.728C368.643,170.346 371.178,174.053 375.405,176.795C378.7,178.933 381.949,181.068 385.165,183.328C391.66,187.89 397.681,192.71 402.67,198.933C403.739,200.267 403.335,202.899 402.294,204.052C402.29,204.711 402.147,205.338 401.823,205.821C399,210.029 395.553,213.738 392.898,218.052C390.494,221.958 388.328,226.016 386.023,229.979C381.511,237.738 376.497,245.227 371.764,252.855C362.048,268.514 352.968,284.456 343.489,300.242C334.118,315.849 323.601,330.646 313.942,346.071C309.187,353.665 304.155,361.057 299.022,368.4C293.599,376.159 287.183,383.592 282.363,391.706C281.652,392.901 280.161,392.946 279.407,391.778C269.008,375.655 259.394,358.998 249.285,342.688C239.24,326.48 228.824,310.486 218.721,294.309C199.674,263.809 180.962,233.125 157.552,205.706C155.971,203.854 157.24,199.483 159.278,199.816C159.418,199.7 159.557,199.583 159.695,199.466C159.966,198.918 160.355,198.528 160.859,198.436ZM397.022,204.045C378.744,209.014 360.147,215.502 341.139,216.442C340.573,216.47 340.008,216.497 339.441,216.522C339.233,221.93 337.084,226.822 334.806,231.801C331.791,238.393 329.985,245.282 327.944,252.214C323.438,267.519 318.489,282.705 313.735,297.935C308.958,313.24 304.399,328.625 299.124,343.777C296.403,351.593 293.443,359.266 290.181,366.867C288.268,371.326 286.563,375.809 284.875,380.309C289.134,374.474 292.961,368.103 296.974,362.297C302.026,354.991 307.063,347.684 312.206,340.442C322.585,325.828 331.403,310.156 340.918,294.975C350.481,279.717 359.909,264.504 369.099,249.005C373.851,240.99 378.405,232.73 383.692,225.055C386.2,221.414 388.851,217.851 391.289,214.163C393.435,210.919 395.093,207.412 397.022,204.045ZM227.557,216.274C226.852,220.127 229.216,225.738 230.22,229.326C235.222,247.198 243.253,263.972 249.93,281.24C256.459,298.128 262.142,315.253 267.623,332.505C268.855,336.385 270.017,340.241 270.966,344.2C272.104,348.948 273.916,353.189 275.427,357.788C277.671,364.622 279.757,371.489 281.568,378.441C282.808,375.923 283.989,373.38 284.951,370.757C286.519,366.482 287.794,362.1 289.251,357.786C292.319,348.699 295.623,339.678 298.804,330.628C305.044,312.876 310.61,294.877 316.155,276.894C321.324,260.128 325.211,242.572 332.207,226.477C333.557,223.371 334.968,220.082 335.297,216.682C316.883,217.29 298.396,216.605 280.006,217.228C269.433,217.587 258.686,217.132 248.098,217.109C241.196,217.095 234.368,216.719 227.557,216.274ZM164.834,205.688C186.35,231.769 203.738,261.131 221.538,289.781C231.667,306.083 241.514,322.569 251.674,338.848C259.286,351.044 267.221,363.059 274.875,375.233C273.26,369.085 271.739,362.892 270.657,356.709C268.976,347.102 265.017,337.679 261.993,328.369C256.152,310.395 249.273,292.661 242.262,275.114C235.331,257.769 227.493,240.521 223.767,222.104C223.327,219.926 223.272,217.912 223.51,216.003C222.562,215.938 221.614,215.874 220.666,215.809C210.843,215.144 201.286,212.185 191.706,210.182C182.8,208.319 173.788,207.275 164.834,205.688ZM738.827,223.91C727.4,224.607 715.918,224.562 704.486,224.917C695.109,225.209 685.359,225.881 675.889,225.011C672.661,233.603 667.742,241.704 663.521,249.835C661.148,254.408 658.374,258.885 656.214,263.556C663.05,263.577 669.875,262.96 676.738,263.282C686.92,263.761 696.862,265.698 707.1,265.6C724.857,265.43 743.095,264.434 760.814,262.342C760.481,261.213 759.945,260.065 759.187,258.781C756.912,254.925 754.652,251.062 752.384,247.203C747.833,239.457 743.301,231.701 738.827,223.91ZM629.777,216.271C626.386,217.778 623.645,220.149 620.939,222.692C618.384,225.093 615.939,227.604 612.999,229.544C609.484,231.865 605.472,232.904 602.411,235.942C597.933,240.39 593.638,245.094 589.413,249.828C608.956,253.441 627.787,260.652 647.579,263.073C649.066,263.255 650.552,263.375 652.038,263.45C654.906,256.594 658.806,250.017 662.252,243.443C665.511,237.227 668.476,230.536 672.321,224.604C670.793,224.394 669.275,224.137 667.77,223.824C655.457,221.266 643.501,218.153 630.926,216.913C630.456,216.867 630.072,216.626 629.777,216.271ZM779.852,216.454C779.573,217.045 779.117,217.473 778.474,217.532C772.147,218.115 765.745,218.895 759.49,220.028C754.058,221.012 749.061,223.132 743.514,223.58C743.164,223.608 742.814,223.636 742.465,223.662C746.827,230.923 751.138,238.211 755.44,245.507C758.221,250.225 763.083,256.018 764.358,261.908C764.833,261.847 765.31,261.786 765.786,261.724C784.826,259.239 803.264,252.086 822.391,250.286C816.708,244.144 809.307,239.048 803.212,233.638C799.199,230.076 795.272,226.418 791.29,222.822C787.642,219.526 784.165,217.737 779.852,216.454ZM1000,201.956C991.429,215.537 982.902,229.245 975.314,243.363C974.402,245.06 972.759,244.099 972.141,242.821C956.233,209.929 936.253,178.869 915.776,148.669C894.689,117.57 874.716,85.703 854.034,54.334C852.63,54.407 851.068,51.053 852.76,49.299C856.035,45.901 858.899,42.133 862.149,38.708C865.497,35.179 869.272,32.06 872.745,28.675C878.912,22.664 886.591,17.156 894.292,13.293C901.513,9.671 909.679,6.823 917.633,5.416C926.64,3.822 935.579,3.927 944.654,3.186C949.572,2.785 954.086,1.516 958.875,0.583C963.16,-0.25 967.863,0.05 972.209,0.061C981.423,0.083 990.621,1.058 999.847,1.325L1000,1.33L1000,4.758C997.447,4.423 994.889,4.185 992.332,4.077C983.337,3.698 974.638,4.986 965.675,5.811C961.057,6.235 956.903,5.535 952.323,5.346C948.239,5.178 944.014,5.771 939.977,6.395C930.982,7.784 921.753,8.966 912.877,10.979C910.936,11.419 909.083,11.976 907.293,12.631C911.941,13.671 916.869,14.077 921.456,14.993C927.908,16.282 934.306,17.683 940.874,18.257C946.798,18.775 952.71,18.767 958.647,18.913C964.428,19.055 970.078,19.762 975.876,19.565C982.034,19.357 988.134,18.36 994.312,18.323C996.236,18.312 998.115,18.709 1000,18.971L1000,23.768C998.168,24.068 996.347,24.465 994.463,24.493C988.277,24.587 982.146,23.717 975.976,23.638C969.578,23.556 963.299,24.583 956.913,24.618C952.212,24.645 947.51,24.537 942.819,24.229C942.801,24.458 942.761,24.682 942.695,24.894C940.21,32.849 937.146,40.779 932.849,47.953C930.273,52.253 926.376,56.664 924.089,61.502C930.091,61.702 936.025,61.301 942.221,60.95C952.44,60.371 962.702,60.432 972.933,60.566C981.956,60.684 990.98,61.292 1000,61.684L1000,66.55C991.365,66.523 982.667,66.04 974.057,65.814C956.897,65.362 939.478,68.209 922.314,67.434C922.245,68.077 922.217,68.727 922.237,69.387C922.384,74.422 925.443,80.272 927.014,85.045C928.559,89.734 930.106,94.422 931.648,99.112C934.531,107.882 937.394,116.659 940.215,125.448C951.591,160.888 962.988,196.306 974.823,231.592C977.806,224.493 979.994,216.801 982.318,209.617C985.257,200.525 988.389,191.499 991.369,182.42C994.253,173.638 997.118,164.848 1000,156.062L1000,167.878C998.418,172.614 996.835,177.351 995.255,182.089C991.913,192.107 988.742,202.181 985.34,212.178C984.294,215.251 983.189,218.301 982.061,221.34C987.78,211.357 993.804,201.592 1000,191.938L1000,201.956ZM859.618,54.844C896.704,110.744 936.009,165.697 967.798,224.854C956.769,190.289 945.301,155.881 934.07,121.382C931.006,111.972 927.95,102.559 924.919,93.139C922.302,85.005 918.147,75.935 918.227,67.178C916.991,67.077 915.758,66.955 914.527,66.809C909.768,66.242 905.327,65.03 900.708,63.834C895.732,62.544 890.623,61.809 885.642,60.55C883.088,59.904 880.769,58.775 878.239,58.067C875.283,57.238 872.163,57.242 869.136,56.827C865.924,56.387 862.755,55.67 859.618,54.844ZM767.51,213.382C762.192,212.054 756.879,210.709 751.538,209.492C746.472,208.338 741.564,206.811 736.356,206.453C732.324,206.176 728.311,206.467 724.278,206.5C715.599,206.568 706.974,205.48 698.293,205.704C689.068,205.942 679.886,207.081 670.775,208.487C666.012,209.222 661.333,209.569 656.587,210.074C652.708,210.487 648.744,211.812 644.883,212.711C652.057,213.795 659.08,215.498 666.282,217.477C678.67,220.881 691.654,219.239 704.341,219.032C715.792,218.844 727.26,218.782 738.715,218.583C738.846,218.533 738.984,218.527 739.125,218.575C740.815,218.546 742.505,218.513 744.195,218.476C750.279,218.344 755.763,215.999 761.593,214.527C763.548,214.034 765.524,213.672 767.51,213.382ZM312.559,173.768C301.943,174.454 291.265,173.308 280.724,174.4C274.242,175.071 267.605,173.999 261.082,174.298C256.926,174.489 253.09,175.198 249.117,175.374C249.091,175.695 249.021,175.991 248.897,176.232C244.316,185.152 238.895,193.61 234.486,202.629C233.191,205.279 231.233,208.096 229.692,210.939C231.283,211.046 232.916,211.09 234.648,211.08C239.081,211.055 243.513,210.976 247.946,210.921C258.222,210.795 268.572,210.402 278.844,210.499C297.283,210.673 316.048,211.376 334.523,210.391C333.153,206.253 330.411,202.449 328.149,198.857C322.901,190.526 317.74,182.142 312.559,173.768ZM206.966,165.888C205.787,166.678 204.615,167.666 203.268,168.895C196.389,175.162 188.755,180.733 181.422,186.452C176.545,190.254 170.019,194.249 165.51,199.202C174.387,200.924 183.132,203.144 192.064,204.603C201.177,206.093 210.351,206.905 219.328,209.23C221.315,209.745 223.19,210.138 225.045,210.426C226.454,207.052 228.581,203.845 230.751,200.383C235.88,192.202 240.296,183.632 245.214,175.342C244.503,175.294 243.784,175.22 243.054,175.114C230.868,173.348 219.277,170.178 207.615,166.29C207.367,166.208 207.151,166.069 206.966,165.888ZM354.215,165.546C353.867,166.004 353.392,166.307 352.787,166.343C346.43,166.729 339.969,167.459 333.815,169.128C328.644,170.532 323.605,172.43 318.279,173.195C322.408,179.857 326.539,186.517 330.604,193.217C333.853,198.574 337.346,204.015 338.786,210.132L339.066,210.112C349.007,209.423 358.544,207.462 368.116,204.754C376.858,202.282 385.636,200.128 394.424,197.873C389.796,193.357 384.587,189.411 379.599,185.319C372.905,179.829 367.727,171.976 359.799,168.049C357.988,167.151 356.124,166.319 354.215,165.546ZM0,1.33C8.75,1.604 17.267,3.578 25.824,5.517C34.273,7.431 44.135,8.354 51.949,12.208C59.252,15.81 65.606,22.803 71.631,28.167C78.907,34.646 86.185,41.125 93.461,47.604C93.8,47.906 94.007,48.394 94.099,48.939C95.209,49.852 96.01,52.713 95.29,54.225C87.537,70.481 77.138,85.334 66.572,99.863C60.812,107.784 55.932,116.207 50.244,124.174C44.815,131.776 39.621,139.568 34.544,147.41C24.331,163.189 14.4,179.167 4.358,195.059C2.907,197.355 1.453,199.653 0,201.956L0,191.938C10.392,175.744 21.27,159.856 32.011,143.751C37.246,135.903 42.359,127.953 47.295,119.915C52.405,111.596 58.334,103.836 63.653,95.647C72.404,82.172 81.903,69.234 89.475,55.062C81.017,57.797 72.337,60.007 63.659,61.88C53.564,64.058 43.547,64.51 33.368,65.768L33.194,65.789C33.191,66.51 33.117,67.244 32.961,67.992C31.13,76.75 27.182,85.456 24.219,93.899C20.763,103.749 17.833,113.703 14.618,123.624C9.831,138.4 4.921,153.141 0,167.878L0,156.062C3.107,146.588 6.234,137.119 9.422,127.674C15.573,109.454 21.71,91.332 27.305,72.92C27.867,71.073 28.632,69.206 29.051,67.332C29.142,66.924 29.209,66.54 29.253,66.174C21.071,66.791 12.93,66.359 4.707,66.515C3.141,66.544 1.572,66.555 0,66.55L0,61.684C0.899,61.724 1.796,61.761 2.694,61.795C11.173,62.117 19.472,61.132 27.901,60.62C27.419,59.819 26.848,58.987 26.239,58.025C23.991,54.474 21.751,50.905 19.564,47.316C15.038,39.889 11.353,31.973 8.097,23.918C8.062,23.832 8.032,23.743 8.007,23.653C6.632,23.595 5.262,23.476 3.844,23.435C2.54,23.398 1.268,23.56 0,23.768L0,18.971C1.239,19.144 2.48,19.259 3.738,19.162C6.333,18.962 9.102,18.269 11.679,17.772C19.896,16.188 28.09,14.445 36.287,12.764C30.71,11.374 25.1,10.086 19.53,8.711C13.124,7.131 6.578,5.622 0,4.758L0,1.33ZM341.269,161.301C330.339,158.43 318.797,156.937 308.164,156.031C299.489,155.292 290.04,153.709 281.246,154.207C272.541,154.7 263.815,155.716 255.113,156.37C246.349,157.028 237.76,159.213 229.199,161.09C225.451,161.912 221.758,162.506 217.984,162.938C221.061,163.618 224.142,164.287 227.213,165.009C233.303,166.441 239.167,168.569 245.435,169.212C251.491,169.834 257.846,170.095 263.912,169.612C270.173,169.113 276.238,167.728 282.536,168.186C288.715,168.633 294.966,167.495 301.178,167.495C307.387,167.496 313.456,167.73 319.592,166.554C326.994,165.135 334.029,162.884 341.269,161.301ZM609.578,0C602.723,10.251 595.859,20.501 589.009,30.758C578.162,47 567.494,63.363 556.574,79.557C551.689,86.8 546.592,93.957 542.367,101.616C538.433,108.752 535.152,116.169 529.662,122.305C528.486,123.62 527.087,122.206 526.545,121.147C509.499,87.862 490.273,55.721 469.35,24.73C463.739,16.419 457.966,8.208 452.186,0L458.199,0C463.461,7.446 468.69,14.918 473.773,22.492C492.006,49.666 508.781,77.776 524.413,106.521C515.047,70.959 501.97,36.203 490.257,1.413L489.784,0L494.334,0C495.305,2.765 496.264,5.537 497.206,8.315C503.28,26.243 508.994,44.284 515.148,62.189C520.511,77.796 525.575,93.499 529.64,109.497C534.904,93.358 539.383,76.965 544.513,60.789C550.189,42.89 556.708,25.227 562.229,7.288C562.979,4.85 563.758,2.422 564.559,0L568.301,0C561.816,18.809 555.336,37.611 549.236,56.558C543.855,73.27 538.259,89.996 534.048,107.059C536.491,102.759 538.551,98.205 541.049,93.906C545.505,86.236 550.59,78.911 555.509,71.534C565.957,55.864 576.552,40.292 587.012,24.63C592.493,16.423 597.967,8.209 603.44,0L609.578,0ZM901.312,15.264C897.87,17.026 894.574,19.115 891.213,21.376C879.713,29.114 865.254,37.615 857.301,49.623C861.389,50.211 865.463,50.919 869.444,52.03C871.966,52.732 874.321,53.783 876.876,54.322C879.471,54.868 881.97,54.67 884.559,55.003C894.514,56.283 904.452,58.914 914.373,60.568C915.992,60.837 917.594,61.042 919.185,61.193C920.792,56.191 924.154,51.717 927.061,47.472C932.1,40.111 935.237,32.045 938.644,23.9C933.198,23.402 927.744,22.684 922.387,21.579C915.559,20.171 909.05,16.761 902.213,15.73C901.842,15.675 901.544,15.506 901.312,15.264ZM46.56,15.583C40.755,16.989 34.962,18.276 29.168,19.805C23.511,21.298 17.706,22.845 11.89,23.543C15.799,31.985 19.958,40.376 24.51,48.479C26.677,52.337 30.158,56.192 31.984,60.413C41.269,59.948 50.589,57.842 59.746,56.186C69.676,54.389 79.339,52.04 89.044,49.349C81.825,43.475 74.608,37.603 67.389,31.729C60.942,26.486 54.507,18.622 46.56,15.583Z" style="fill-rule:nonzero;"/>
</svg>
