<?xml version="1.0" encoding="UTF-8" standalone="no"?>
<!DOCTYPE svg PUBLIC "-//W3C//DTD SVG 1.1//EN" "http://www.w3.org/Graphics/SVG/1.1/DTD/svg11.dtd">
<svg width="100%" height="100%" viewBox="0 0 1000 1000" version="1.1" xmlns="http://www.w3.org/2000/svg" xmlns:xlink="http://www.w3.org/1999/xlink" xml:space="preserve" xmlns:serif="http://www.serif.com/" style="fill-rule:evenodd;clip-rule:evenodd;stroke-linejoin:round;stroke-miterlimit:2;">
    <path d="M558.351,1000C564.119,986.914 570.017,973.887 575.925,960.873C577.101,958.281 579.691,956.724 581.744,959.582C586.212,965.8 590.21,972.366 593.73,979.165C597.237,985.939 599.561,993.271 603.118,1000L558.351,1000ZM808.95,1000C809.12,999.608 809.29,999.215 809.461,998.822C812.216,992.479 815.045,986.171 818.231,980.03C821.381,973.956 826.117,968.223 828.557,961.869C829.474,959.481 832.712,957.424 834.417,960.568C840.981,972.677 850.027,983.14 857.071,994.942C858.066,996.609 859.017,998.298 859.937,1000L808.95,1000ZM892.692,1000L893.274,998.779C896.419,992.172 899.54,985.552 902.723,978.964C905.682,972.842 908.364,966.429 912.248,960.825C913.732,958.685 916.039,958.602 917.593,960.695C926.14,972.209 934.799,983.96 941.795,996.503C942.437,997.656 943.049,998.823 943.64,1000L892.692,1000ZM0,959.091C1.001,959.17 2.017,959.765 2.734,960.659C11.513,971.624 17.244,985.175 23.585,997.613L24.802,1000L0,1000L0,959.091ZM476.388,1000L476.97,998.818C480.402,991.851 483.794,984.865 487.145,977.859C490.151,971.576 493.013,965.487 497.451,960.064C498.764,958.46 501.044,959.491 501.998,960.843C505.867,966.328 510.773,971.031 514.085,976.902C517.242,982.498 519.48,988.564 522.139,994.4C522.995,996.278 523.871,998.144 524.769,1000L476.388,1000ZM1000,1000L977.625,1000C984.259,986.977 990.687,973.851 997.258,960.794C997.912,959.492 998.948,959.007 1000,959.091L1000,1000ZM143.055,1000C148.849,986.951 153.615,973.541 160.872,961.175C162.481,958.433 165.363,959.68 166.384,962.117C168.627,967.472 173.093,971.401 176.565,975.943C180.712,981.367 184.244,987.313 187.828,993.115C189.241,995.402 190.639,997.697 192.026,1000L143.055,1000ZM224.501,1000C231.004,986.914 237.671,973.906 244.227,960.862C245.13,959.065 247.708,958.255 249.249,959.746C258.826,969.014 263.859,982.508 269.779,994.208L272.709,1000L224.501,1000ZM308.851,1000L309.864,997.842C313.122,990.906 316.377,983.969 319.638,977.034C322.368,971.226 325.037,965.443 329.089,960.415C331.13,957.882 333.752,958.415 335.045,961.432C340.685,974.596 346.961,987.453 353.803,1000L308.851,1000ZM730.767,1000C734.242,993.183 736.038,985.492 739.388,978.585C742.839,971.468 747.043,964.891 752.041,958.767C753.301,957.223 755.341,958.295 756.284,959.493C765.898,971.715 771.624,985.862 777.385,1000L730.767,1000ZM712.88,884.501C710.169,885.535 707.457,879.465 708.837,876.552C722.008,848.746 736.765,821.645 750.541,794.13C751.732,791.752 754.973,791.753 756.273,793.99C770.386,818.27 784.368,842.695 796.437,868.067C803.845,856.513 810.819,844.652 817.189,832.503C824.089,819.344 829.333,805.156 839.057,793.722C841.107,791.312 843.738,793.931 844.663,795.803C851.432,809.518 858.211,823.23 864.989,836.941C868.378,843.796 871.766,850.651 875.155,857.506C877.887,863.032 883.092,869.927 882.884,876.269C882.756,880.179 881.35,882.152 879.149,883.035C878.527,884.166 877.561,884.928 876.245,884.937C854.168,885.081 832.095,885.341 810.018,885.442C808.965,885.606 807.914,885.775 806.864,885.951C806.181,886.065 805.583,885.855 805.068,885.463C801.623,885.475 798.175,885.482 794.726,885.485C781.138,885.493 767.549,885.502 753.961,885.511C740.498,885.52 726.521,886.464 713.171,884.555C713.072,884.54 712.975,884.522 712.88,884.501ZM543.974,868.925C555.535,844.047 567.078,819.152 578.292,794.113C580.056,790.176 583.582,790.002 585.519,793.935C592.573,808.264 599.61,822.612 607.879,836.292C615.173,848.361 623.648,859.532 627.891,873.117C629.442,876.612 628.428,882.445 624.679,882.72C598.194,884.657 571.521,885.112 544.881,885.169C544.248,885.561 543.585,885.515 542.955,885.173C529.015,885.193 515.089,885.112 501.205,885.085C480.697,885.045 460.19,884.921 439.682,884.819C419.324,884.72 398.726,885.54 378.502,883.129C376.251,882.86 375.071,880.332 375.084,877.899C374.629,876.392 374.537,874.797 375.05,873.644C387.304,846.083 399.948,819.044 415.672,793.265C417.787,789.798 420.852,791.663 422.316,794.4C429.545,807.906 436.188,821.972 444.726,834.712C451.037,844.13 457.824,853.296 461.305,864.031C465.352,853.732 470.027,843.722 475.264,833.931C482.021,821.295 489.992,809.239 494.708,795.625C495.843,792.348 499.129,791.159 501.375,794.146C518.732,817.221 528.433,844.748 543.974,868.925ZM0,792.774C1.412,792.815 2.843,794.04 3.546,795.567C6.298,801.545 11.294,806.231 14.45,812.023C17.862,818.284 20.727,824.854 23.948,831.216C30.586,844.33 37.814,857.118 44.786,870.053C50.932,857.723 57.878,845.798 63.825,833.354C67.004,826.703 69.677,819.727 73.275,813.286C76.439,807.624 80.767,802.612 82.975,796.457C84.053,793.45 87.341,791.941 89.44,795.022C97.178,806.384 101.515,820.482 107.212,832.952C113.108,845.855 119.363,858.583 126.425,870.892C133.191,857.726 140.336,844.758 147.229,831.657C150.821,824.828 154.922,818.012 157.786,810.836C160.389,804.316 162.561,798.616 167.203,793.204C168.597,791.579 171.292,792.395 172.226,794.063C180.291,808.458 188.036,823.032 195.39,837.802C198.867,844.787 202.369,851.131 206.974,857.427C208.898,860.059 211.038,863.215 212.695,866.543C222.967,842.846 234.411,819.671 245.448,796.318C246.651,793.771 249.701,791.532 251.767,794.916C259.407,807.427 265.658,820.094 271.427,833.554C277.364,847.404 285.526,860.116 293.228,873.025C294.223,874.693 294.983,879.871 293.458,882.346C292.879,883.603 291.905,884.479 290.529,884.482C268.004,884.535 245.478,884.589 222.953,884.641C221.712,884.665 220.469,884.679 219.226,884.682C219.053,884.683 218.887,884.672 218.726,884.651L216.781,884.656C173.61,884.759 130.44,884.86 87.269,884.962C65.924,885.013 44.579,885.041 23.235,884.977C15.505,884.953 7.753,884.983 0,884.935L0,792.774ZM1000,792.774L1000,884.935C986.504,884.852 973.001,884.535 959.59,883.292C957.735,883.12 956.671,881.183 956.471,879.137C955.856,877.603 955.627,875.75 956.061,874.578C966.55,846.267 982.935,820.871 997.427,794.522C998.13,793.242 999.061,792.746 1000,792.774ZM1000,716.427C973.415,717.647 946.837,719.1 920.215,719.437C898.765,719.709 877.312,719.535 855.865,719.145C845.3,718.953 834.741,718.671 824.181,718.317C814.148,717.981 803.836,718.175 793.936,716.294C792.76,716.82 791.351,716.328 790.419,715.103C788.809,712.99 789.137,709.908 790.236,707.681C797.738,692.489 805.288,677.231 813.555,662.436C817.249,655.824 822.068,649.998 825.975,643.53C829.453,637.769 831.154,631.351 835.532,626.13C836.98,624.402 839.315,625.543 840.388,626.961C848.66,637.894 853.867,650.628 859.247,663.135C864.905,676.29 870.636,689.415 876.221,702.603C878.765,697.587 880.73,692.3 883.01,687.14C885.893,680.614 889.201,674.265 892.522,667.955C899.585,654.537 907.091,641.334 912.247,627.025C913.286,624.141 916.73,622.341 918.744,625.584C927.047,638.963 935.979,652.077 943.682,665.813C947.13,671.961 949.798,678.524 953.348,684.608C955.679,688.603 958.773,692.501 960.946,696.733C964.715,686.779 969.085,677.202 974.497,667.823C982.256,654.375 989.468,640.656 996.158,626.646C996.985,624.915 998.591,624.553 1000,625.079L1000,716.427ZM540.999,702.353C553.614,676.034 566.689,649.942 579.569,623.749C580.744,621.36 584.069,621.338 585.351,623.607C599.419,648.518 611.89,674.228 622.744,700.698C636.538,675.965 650.74,651.495 663.47,626.181C664.857,623.423 667.747,624.105 669.345,626.037C679.012,637.718 684.197,651.009 690.831,664.426C694.201,671.242 697.872,677.791 700.739,684.854C703.141,690.772 705.402,696.72 708.108,702.499C709.107,703.133 709.719,704.159 710.185,705.36C711.226,708.04 711.02,711.479 708.969,713.638C706.28,716.467 701.689,715.507 698.099,715.534C693.489,715.569 688.879,715.603 684.269,715.638L656.61,715.849C623.104,716.104 589.598,716.337 556.091,716.392C539.483,716.419 522.875,716.39 506.268,716.319C490.367,716.251 474.603,717.367 458.747,718.279C457.476,718.352 456.508,717.747 455.845,716.777C455.53,716.562 455.229,716.28 454.955,715.937C453.399,713.992 453.648,710.793 454.779,708.735C470.009,681.028 486.168,653.851 502.223,626.616C503.518,624.417 506.697,624.026 508.02,626.473C521.169,650.812 532.25,676.115 540.999,702.353ZM205.327,706.808C217.921,679.63 231.328,652.829 244.531,625.943C245.718,623.525 248.621,623.859 249.971,625.809C266.465,649.629 274.062,678.473 291.496,701.658C302.596,676.19 315.061,651.315 327.122,626.294C328.885,622.635 332.605,624.821 333.795,627.435C340.225,641.552 345.631,657.179 354.762,669.808C363.156,681.415 368.915,692.989 372.796,706.682C376.079,709.117 375.637,717.544 371.37,717.29C343.88,715.648 316.356,716.856 288.857,717.51C275.112,717.836 261.354,718.001 247.61,717.499C234.787,717.031 222.068,715.378 209.243,715.439C208.183,716.646 206.974,716.259 206.004,715.163C203.608,713.873 203.378,708.756 205.327,706.808ZM0,625.079C0.717,625.346 1.382,625.842 1.869,626.505C10.655,638.471 18.443,651.103 25.589,664.108C31.155,674.24 36.959,684.476 40.79,695.418C52.73,672.388 65.842,649.885 78.534,627.289C80.504,623.783 83.775,625.751 85.125,628.415C91.687,641.368 98.316,654.275 105.383,666.963C108.969,673.403 112.62,679.811 116.312,686.191C119.927,692.438 124.228,698.59 126.409,705.522C127.351,708.51 127.554,713.403 124.111,715.06C121.873,716.136 119.921,716.007 117.812,715.49C98.91,714.778 79.995,714.486 61.078,714.614C60.774,714.648 60.469,714.68 60.165,714.71C56.964,715.026 52.752,715.579 49.223,714.75C48.869,714.755 48.518,714.761 48.167,714.767C32.101,715.038 16.05,715.69 0,716.427L0,625.079ZM462.299,533.155C466.692,522.498 471.273,511.777 477.561,502.174C485.884,489.465 491.124,474.618 497.277,460.761C498.596,457.793 501.322,456.371 503.638,459.35C508.336,465.392 513.486,471.265 517.693,477.666C521.488,483.441 524.482,489.796 527.718,495.892C534,507.73 540.297,519.561 546.442,531.468C557.272,508.292 567.704,484.9 578.3,461.618C579.489,459.005 582.495,456.956 584.568,460.228C592.097,472.108 598.419,483.945 603.727,496.965C609.132,510.225 617.272,522.679 624.255,535.19C624.414,535.291 624.572,535.417 624.726,535.571C627.785,538.627 628.04,543.719 624.95,546.936C621.448,550.581 615.039,549.339 610.442,549.404C597.133,549.594 583.823,549.751 570.513,549.875C523.596,550.314 476.674,550.35 429.755,549.981C406.461,549.799 383.17,549.497 359.879,549.043C337.802,548.611 314.602,546.161 292.88,551.123C291.13,551.523 289.913,549.965 289.357,547.895C288.661,546.363 288.442,544.411 289.119,542.768C294.936,528.627 302.683,515.338 309.943,501.909C317.534,487.869 325.264,473.913 333.8,460.421C335.137,458.309 337.925,458.004 339.302,460.286C347.093,473.196 355.343,485.892 362.684,499.064C368.764,509.973 373.9,521.34 378.864,532.784C387.494,507.358 400.78,483.51 414.413,460.51C415.696,458.346 418.719,458.028 420.042,460.372C427.372,473.369 434.174,486.642 441.649,499.564C445.411,506.068 449.267,512.517 453.214,518.91C455.188,522.107 457.186,525.288 459.204,528.456C460.162,529.959 461.33,531.519 462.299,533.155ZM795.488,533.786C800.154,522.792 805.473,512.062 810.568,501.266C816.963,487.715 823.36,474.165 829.754,460.613C830.922,458.138 833.676,456.212 835.685,459.297C851.851,484.127 865.513,510.511 876.421,538.059C876.509,538.283 876.589,538.526 876.658,538.784C879.41,540.354 879.717,546.425 876.612,547.746C870.666,550.275 862.68,548.516 856.281,548.847C849.824,549.181 843.539,550.613 837.05,550.67C823.14,550.791 809.206,550.292 795.294,550.167C781.181,550.04 767.067,549.881 752.953,549.816C745.734,549.782 738.506,549.879 731.289,549.759C725.72,549.668 719.94,549.915 714.394,549.121C713.661,549.603 712.89,549.375 712.204,548.747C712.114,548.729 712.024,548.711 711.935,548.692C709.317,548.149 709.113,543.417 710.624,541.217C716.687,526.265 722.052,511.03 727.853,495.973C730.677,488.648 733.629,481.368 736.939,474.248C738.648,470.573 740.424,466.927 742.324,463.347C743.534,461.069 744.778,457.751 747.788,457.758C750.777,457.766 752.555,461.151 754.117,463.26C756.731,466.79 759.261,470.383 761.724,474.021C766.303,480.782 770.647,487.698 774.894,494.673C782.444,507.072 791.358,519.705 795.488,533.786ZM1000,458.054L1000,550.418C986.904,550.652 973.636,550.982 960.755,549.397C957.371,552.575 954.447,543.4 956.541,540.471C965.166,528.402 969.814,514.208 976.086,500.895C982.694,486.872 990.3,473.372 997.93,459.887C998.537,458.814 999.255,458.248 1000,458.054ZM0,458.054C1.736,457.601 3.62,459.162 4.599,461.027C17.643,485.855 31.374,510.273 45.227,534.656C56.395,510.287 67.648,486.001 77.848,461.191C79.001,458.389 82.333,456.339 84.428,459.731C92.144,472.22 98.084,485.579 104.595,498.703C111.277,512.17 119.645,524.66 127.683,537.34C139.943,511.872 153.702,487.146 165.727,461.539C166.954,458.925 170.026,456.711 172.139,460.116C176.223,466.696 180.283,473.303 183.732,480.246C187.14,487.103 189.705,494.335 193.003,501.243C198.808,513.404 207.386,523.727 211.757,536.514C211.772,536.527 211.787,536.539 211.801,536.552C213.983,538.481 214.407,542.824 212.747,545.204C211.389,547.153 209.833,547.869 208.026,548.15C205.838,548.794 203.564,548.765 201.276,548.482C197.293,548.651 193.308,548.81 189.323,548.928C179.749,549.213 170.173,549.431 160.596,549.599C127.238,550.182 93.872,550.163 60.51,550.212C44.045,550.237 27.58,550.261 11.116,550.286C7.434,550.292 3.725,550.351 0,550.418L0,458.054ZM1000,380.644C965.619,380.558 931.235,380.902 896.856,381.464C861.828,382.036 826.6,384.068 791.578,383.313C788.1,385.692 785.921,377.99 787.673,374.73C795.291,360.563 804.323,347.103 812.813,333.441C821.209,319.931 829.474,306.338 838.017,292.922C840.102,289.649 843.098,291.238 844.511,294.032C855.891,316.529 867.33,338.963 877.855,361.866C886.129,338.066 896.324,314.895 907.28,292.238C908.515,289.684 911.685,289.982 913.086,292.095C921.509,304.79 930.389,317.177 938.879,329.826C946.67,341.433 952.74,353.904 958.527,366.587C971.652,342.914 980.023,316.649 995.831,294.492C996.856,293.056 998.572,292.321 1000,292.9L1000,380.644ZM210.628,366.586C221.012,340.952 232.637,315.648 246.071,291.487C247.293,289.288 250.287,289.129 251.578,291.351C265.881,315.979 282.475,339.758 293.913,365.941C303.882,341.274 315.683,317.242 327.41,293.4C328.677,290.824 331.61,291.307 333.066,293.262C341.761,304.944 350.015,316.893 357.419,329.443C364.327,341.151 371.306,353.333 376.267,366.047C386.952,341.416 399.42,317.43 411.266,293.37C412.46,290.944 415.915,290.864 417.206,293.225C424.776,307.06 432.423,320.853 439.979,334.696C443.675,341.466 447.356,348.245 451.012,355.037C454.468,361.457 458.051,367.766 459.148,375.078C459.534,377.65 458.961,382.352 456.172,383.199C455.732,383.488 455.212,383.645 454.613,383.623C430.196,382.737 405.771,382.101 381.341,381.735C338.424,381.092 295.495,381.266 252.584,382.252C231.116,382.745 209.652,383.54 188.177,383.641C167.366,383.738 146.328,383.709 125.805,379.931C123.078,380.499 121.359,374.309 122.969,371.519C129.854,359.601 132.586,345.734 138.803,333.463C145.426,320.39 153.275,308.255 158.888,294.639C159.924,292.125 163.119,290.044 164.995,293.284C179.443,318.228 199.133,339.966 210.628,366.586ZM543.588,382.025C540.809,383.621 538.191,377.121 539.329,374.214C542.176,366.949 545.417,359.962 549.255,353.156C552.78,346.902 557.109,341.078 560.093,334.527C566.375,320.736 571.213,306.534 578.306,293.07C579.56,290.69 582.755,290.646 584.107,292.928C591.858,306.006 599.785,318.982 607.635,332C611.56,338.508 615.484,345.016 619.408,351.523C621.513,355.013 623.697,358.394 625.09,362.059C634.411,338.372 645.952,315.453 658.027,293.089C659.399,290.548 662.336,290.822 663.856,292.946C673.379,306.246 677.989,322.194 687.769,335.391C696.083,346.609 705.009,357.008 709.463,370.317C712.658,372.517 712.336,380.561 708.176,380.762C707.421,381.255 706.489,381.467 705.381,381.247C704.707,381.113 704.034,380.978 703.361,380.841C677.039,381.203 650.685,380.598 624.366,380.436C610.515,380.35 596.663,380.243 582.814,380.605C569.941,380.94 556.412,383.265 543.588,382.025ZM0,292.9C0.595,293.141 1.14,293.61 1.564,294.352C15.394,318.551 28.747,343.024 41.588,367.764C42.534,367.985 43.446,368.736 43.973,369.915C45.307,372.898 45.051,376.729 42.665,379.173C39.95,381.953 34.776,380.883 31.371,380.847C21.739,380.744 12.107,380.681 2.475,380.651L0,380.644L0,292.9ZM630.444,216.049C629.505,217.119 628.112,217.514 626.701,216.496C624.587,214.97 624.747,211.627 625.305,209.43C627.292,201.625 631.82,194.84 635.527,187.778C639.446,180.312 643.124,172.718 646.549,165.013C652.637,151.317 656.938,136.111 666.957,124.637C668.339,123.053 670.404,124.094 671.44,125.404C680.224,136.504 687.035,148.633 693.644,161.104C699.631,172.4 705.634,183.688 711.609,194.99C716.775,183.95 721.437,172.711 726.662,161.703C729.577,155.56 734.029,150.491 737.219,144.528C740.525,138.348 743.393,131.899 746.452,125.594C747.638,123.147 750.432,123.621 751.802,125.463C770.125,150.107 784.804,177.401 795.153,206.312C796.147,209.091 796.024,214.487 792.14,214.946C791.302,215.044 790.469,215.091 789.639,215.096C784.122,215.978 777.704,215.005 772.36,214.878C765.203,214.708 758.047,214.501 750.891,214.318C737.448,213.975 723.992,213.692 710.551,214.201C696.901,214.719 683.327,216.46 669.65,216.074C662.992,215.887 656.346,215.407 649.688,215.283C643.235,215.163 636.863,215.837 630.444,216.049ZM209.695,198.73C220.818,174.794 233.175,151.373 243.34,127.02C244.414,124.447 247.558,122.432 249.496,125.654C257.869,139.571 266.436,153.369 274.947,167.201C279.285,174.251 283.622,181.302 287.96,188.352C291.252,193.701 294.933,198.677 295.853,204.875C296.318,205.337 296.698,205.9 296.935,206.451C297.966,208.847 297.597,211.89 295.85,213.834C292.387,217.686 283.678,215.861 279.01,215.89C272.062,215.932 265.115,215.955 258.167,215.977C243.996,216.023 229.825,215.976 215.655,215.951C200.744,215.925 185.833,215.895 170.923,215.891C163.634,215.889 156.332,216.014 149.045,215.887C142.859,215.779 136.238,215.956 130.12,214.696C129.04,215.576 127.516,215.293 126.464,214.246C124.893,212.684 124.677,209.645 125.435,207.658C130.913,193.312 137.218,179.336 143.398,165.281C148.92,152.723 153.621,138.712 161.764,127.557C163.434,125.268 165.613,125.299 167.366,127.42C176.393,138.34 183.201,150.754 189.821,163.22C196.19,175.212 202.849,187.01 209.695,198.73ZM1000,214.659C985.884,214.68 971.77,214.703 957.656,214.732C944.02,214.76 930.383,214.814 916.748,215.015C909.764,215.118 902.782,215.269 895.801,215.456C890.11,215.607 883.994,216.227 878.3,215.305C877.354,216.083 876.314,215.624 875.467,214.603C874.39,213.945 873.84,212.342 873.816,210.723C873.682,209.806 873.727,208.922 874.02,208.232C879.988,194.156 886.234,180.232 892.647,166.353C898.649,153.363 904.15,139.905 911.392,127.542C913.053,124.706 916.249,125.865 917.251,128.544C919.879,135.573 924.481,141.321 928.914,147.28C932.769,152.461 936.109,157.854 939.109,163.569C944.969,174.735 949.624,186.516 957.592,196.37C958.468,197.158 959.375,197.915 960.317,198.638C960.888,199.077 961.353,199.67 961.71,200.359C971.784,175.385 983.562,151.069 995.499,126.948C996.658,124.606 998.549,124.887 1000,126.039L1000,214.659ZM0,126.039C0.66,126.564 1.23,127.269 1.598,127.99C8.723,141.936 16.088,155.747 23.748,169.407C27.524,176.142 31.36,182.843 35.249,189.513C38.484,195.06 41.714,200.499 42.943,206.847C43.582,208.754 43.478,211.197 42.608,212.825C42.082,214.331 41.135,215.489 39.536,215.278C37.803,215.049 36.066,214.825 34.322,214.607L0,214.659L0,126.039ZM376.333,214.59C373.864,214.651 372.237,208.974 373.828,206.344C389.512,180.432 403.146,153.453 416.924,126.499C417.319,125.725 418.529,124.707 419.484,124.795C426.021,125.392 429.075,132.005 432.218,136.991C436.277,143.43 440.049,150.043 443.658,156.744C450.887,170.163 457.358,183.952 463.796,197.76C475.932,174.353 485.117,149.404 498.861,126.872C500.74,123.792 503.52,125.41 504.81,127.889C511.997,141.696 519.494,155.344 526.881,169.045C530.289,175.365 533.721,181.673 537.091,188.012C539.656,192.834 542.754,197.766 543.603,203.187C544.896,204.428 545.243,206.644 544.994,208.433C544.143,214.559 537.781,214.062 532.913,214.082C525.664,214.112 518.415,214.123 511.166,214.144C496.007,214.188 480.85,214.231 465.692,214.275C450.535,214.319 435.377,214.362 420.219,214.406C405.996,214.447 391.549,213.713 377.361,214.739C376.978,214.767 376.636,214.712 376.333,214.59ZM353.803,0C360.27,11.861 367.243,23.444 374.664,34.753C375.256,35.656 375.635,37.078 375.71,38.551C376.633,41.853 375.617,46.128 372.658,45.729C362.471,44.355 352.299,43.804 342.033,44.534C332.008,45.248 322.071,46.929 312.016,47.285C291.836,47.999 271.51,45.642 251.318,45.359C230.738,45.07 210.137,45.424 189.575,46.323C168.378,47.251 147.085,49.417 125.865,49.299C122.639,49.282 121.618,44.5 122.859,41.488C125.108,34.33 127.669,27.4 131.525,20.927C135.46,14.321 139.475,7.985 142.634,0.943C142.775,0.629 142.915,0.315 143.055,0L192.026,0C197.996,9.914 203.75,19.957 209.504,29.997C209.613,30.187 209.717,30.392 209.813,30.608C214.524,20.322 219.463,10.138 224.501,0L272.709,0L290.125,34.421C290.351,34.869 290.524,35.473 290.63,36.164C291.257,36.188 291.884,36.212 292.511,36.234C297.668,24.028 303.224,11.999 308.851,0L353.803,0ZM1000,48.548C989.152,48.56 978.306,48.533 967.463,48.558C924.857,48.657 882.25,48.714 839.644,48.728C818.006,48.735 796.367,48.621 774.731,48.534C753.452,48.448 732.049,48.932 710.802,47.693C710.382,47.669 710.002,47.555 709.663,47.371C706.771,47.204 705.886,40.139 708.254,38.45C714.153,34.241 716.605,27.592 719.231,21.119C722.058,14.149 726.147,8.22 729.843,1.719C730.164,1.153 730.472,0.579 730.767,0L777.385,0C782.075,11.507 786.788,23.008 793.641,33.458C799.393,22.611 804.073,11.272 808.95,0L859.937,0C865.832,10.903 870.472,22.398 877.356,32.788C882.281,21.771 887.501,10.897 892.692,0L943.64,0C945.968,4.631 947.974,9.41 950.274,14.061C953.51,20.606 957.216,26.904 960.917,33.194C966.078,22.116 971.847,11.337 977.4,0.443L977.625,0L1000,0L1000,48.548ZM0,0L24.802,0C31.501,13.126 38.256,26.241 44.547,39.568C45.514,41.618 45.364,49.119 41.438,48.475C40.888,48.385 40.342,48.283 39.798,48.17C26.537,48.463 13.268,48.534 0,48.548L0,0ZM603.118,0C603.196,0.149 603.276,0.299 603.357,0.448C607.143,7.47 611.879,14.062 616.194,20.769C620.289,27.133 624.802,33.353 626.225,40.934C626.293,41.301 626.339,41.693 626.359,42.098C626.734,45.079 625.616,48.431 622.96,48.391C595.01,47.976 567.061,47.537 539.112,47.028C525.563,46.78 512.003,46.416 498.452,46.756C485.475,47.08 471.571,49.945 458.73,47.405C456.145,46.894 455.696,42.255 457.142,39.802C463.316,26.407 469.869,13.227 476.388,0L524.769,0C530.211,11.253 536.418,22.09 543.312,32.535C543.539,32.878 543.739,33.291 543.908,33.751C548.575,22.44 553.415,11.199 558.351,0L603.118,0Z" style="fill-rule:nonzero;"/>
</svg>
